<?xml version="1.0" encoding="UTF-8"?>
<!DOCTYPE svg PUBLIC "-//W3C//DTD SVG 1.1//EN" "http://www.w3.org/Graphics/SVG/1.1/DTD/svg11.dtd">
<svg xmlns="http://www.w3.org/2000/svg" version="1.1" width="500px" height="500px" style="shape-rendering:geometricPrecision; text-rendering:geometricPrecision; image-rendering:optimizeQuality; fill-rule:evenodd; clip-rule:evenodd" xmlns:xlink="http://www.w3.org/1999/xlink">
<g><path style="opacity:1" fill="#51b0c9" d="M 145.5,183.5 C 142.068,183.757 138.734,184.424 135.5,185.5C 142.445,174.715 149.612,164.048 157,153.5C 157.667,152.5 157.667,151.5 157,150.5C 155.26,149.284 154.26,147.618 154,145.5C 151.801,131.046 157.968,124.213 172.5,125C 181.853,128.202 185.687,134.702 184,144.5C 180.772,153.195 174.606,156.861 165.5,155.5C 158.453,164.55 151.786,173.883 145.5,183.5 Z M 164.5,132.5 C 171.622,130.885 175.955,133.552 177.5,140.5C 175.951,147.612 171.618,150.112 164.5,148C 159.221,142.836 159.221,137.669 164.5,132.5 Z"/></g>
<g><path style="opacity:0.976" fill="#51afc8" d="M 93.5,190.5 C 91.2543,189.545 88.921,188.878 86.5,188.5C 87.1989,190.995 88.1989,193.328 89.5,195.5C 84.0353,190.536 78.702,185.37 73.5,180C 60.337,182.764 52.6703,177.597 50.5,164.5C 53.0939,150.569 61.0939,146.069 74.5,151C 82.126,157.617 83.4593,165.284 78.5,174C 84.0761,179.071 89.0761,184.571 93.5,190.5 Z M 62.5,156.5 C 71.1606,155.329 74.994,158.996 74,167.5C 69.7754,174.358 64.7754,175.025 59,169.5C 56.6394,164.22 57.806,159.887 62.5,156.5 Z"/></g>
<g><path style="opacity:1" fill="#51afc9" d="M 135.5,185.5 C 138.734,184.424 142.068,183.757 145.5,183.5C 143.962,186.074 142.295,188.574 140.5,191C 147.319,198.478 150.986,207.311 151.5,217.5C 151.493,219.369 151.16,221.036 150.5,222.5C 151.873,215.562 149.206,211.229 142.5,209.5C 137.182,195.167 126.849,189 111.5,191C 95.1727,196.814 88.506,208.314 91.5,225.5C 91.6621,227.527 91.4955,229.527 91,231.5C 89.4046,228.811 87.238,226.811 84.5,225.5C 83.5036,220.537 83.3369,215.537 84,210.5C 85.8537,205.468 87.687,200.468 89.5,195.5C 88.1989,193.328 87.1989,190.995 86.5,188.5C 88.921,188.878 91.2543,189.545 93.5,190.5C 96.4974,190.803 99.1641,189.637 101.5,187C 112.244,182.224 122.91,182.391 133.5,187.5C 134.182,186.757 134.849,186.091 135.5,185.5 Z"/></g>
<g><path style="opacity:0.855" fill="#fcfcfc" d="M 402.5,191.5 C 418.054,191.895 424.888,199.895 423,215.5C 419.655,227.469 411.821,231.969 399.5,229C 391.77,225.554 387.77,219.554 387.5,211C 388.343,201.023 393.343,194.523 402.5,191.5 Z M 403.5,196.5 C 410.658,196.322 415.158,199.656 417,206.5C 419.033,220.689 413.2,226.189 399.5,223C 392.683,216.227 391.85,208.727 397,200.5C 399.013,198.752 401.18,197.418 403.5,196.5 Z"/></g>
<g><path style="opacity:0.836" fill="#fcfcfc" d="M 181.5,192.5 C 184.247,192.187 186.914,192.52 189.5,193.5C 192.765,202.796 195.932,212.13 199,221.5C 202.068,212.13 205.235,202.796 208.5,193.5C 211.086,192.52 213.753,192.187 216.5,192.5C 216.5,204.5 216.5,216.5 216.5,228.5C 214.5,228.5 212.5,228.5 210.5,228.5C 210.666,220.16 210.5,211.827 210,203.5C 207.392,211.822 204.892,220.155 202.5,228.5C 200.167,228.5 197.833,228.5 195.5,228.5C 193.309,220.427 190.809,212.427 188,204.5C 187.5,212.493 187.334,220.493 187.5,228.5C 185.5,228.5 183.5,228.5 181.5,228.5C 181.5,216.5 181.5,204.5 181.5,192.5 Z"/></g>
<g><path style="opacity:0.835" fill="#fcfdfd" d="M 223.5,192.5 C 225.5,192.5 227.5,192.5 229.5,192.5C 229.5,204.5 229.5,216.5 229.5,228.5C 227.5,228.5 225.5,228.5 223.5,228.5C 223.5,216.5 223.5,204.5 223.5,192.5 Z"/></g>
<g><path style="opacity:0.906" fill="#fcfcfc" d="M 236.5,192.5 C 239.119,192.232 241.619,192.565 244,193.5C 246.874,202.623 250.041,211.623 253.5,220.5C 256.959,211.623 260.126,202.623 263,193.5C 265.381,192.565 267.881,192.232 270.5,192.5C 270.5,204.5 270.5,216.5 270.5,228.5C 268.833,228.5 267.167,228.5 265.5,228.5C 265.666,219.827 265.5,211.16 265,202.5C 262.333,210.5 259.667,218.5 257,226.5C 254.667,229.167 252.333,229.167 250,226.5C 247.333,218.5 244.667,210.5 242,202.5C 241.5,211.16 241.334,219.827 241.5,228.5C 239.833,228.5 238.167,228.5 236.5,228.5C 236.5,216.5 236.5,204.5 236.5,192.5 Z"/></g>
<g><path style="opacity:0.875" fill="#fdfdfd" d="M 278.5,192.5 C 285.921,192.109 293.254,192.609 300.5,194C 306.779,199.633 307.112,205.633 301.5,212C 295.975,214.374 290.308,214.874 284.5,213.5C 283.506,218.456 283.173,223.456 283.5,228.5C 281.833,228.5 280.167,228.5 278.5,228.5C 278.5,216.5 278.5,204.5 278.5,192.5 Z M 283.5,197.5 C 288.297,197.121 292.964,197.621 297.5,199C 299.988,201.627 300.155,204.46 298,207.5C 293.333,208.167 288.667,208.833 284,209.5C 283.501,205.514 283.334,201.514 283.5,197.5 Z"/></g>
<g><path style="opacity:0.9" fill="#fdfdfd" d="M 310.5,192.5 C 319.167,192.5 327.833,192.5 336.5,192.5C 336.5,194.167 336.5,195.833 336.5,197.5C 329.5,197.5 322.5,197.5 315.5,197.5C 315.5,200.833 315.5,204.167 315.5,207.5C 322.167,207.5 328.833,207.5 335.5,207.5C 335.5,209.167 335.5,210.833 335.5,212.5C 328.833,212.5 322.167,212.5 315.5,212.5C 315.5,216.167 315.5,219.833 315.5,223.5C 322.833,223.5 330.167,223.5 337.5,223.5C 337.5,225.167 337.5,226.833 337.5,228.5C 328.5,228.5 319.5,228.5 310.5,228.5C 310.5,216.5 310.5,204.5 310.5,192.5 Z"/></g>
<g><path style="opacity:0.892" fill="#fdfdfd" d="M 342.5,192.5 C 350.571,192.137 358.571,192.637 366.5,194C 370.367,197.66 371.534,202.16 370,207.5C 369.5,209.333 368.333,210.5 366.5,211C 367.416,211.374 368.25,211.874 369,212.5C 370.145,217.083 370.811,221.749 371,226.5C 371.5,227 372,227.5 372.5,228C 370.19,228.497 367.857,228.663 365.5,228.5C 364.979,224.139 364.312,219.806 363.5,215.5C 362.624,214.749 361.624,214.249 360.5,214C 356.179,213.501 351.846,213.334 347.5,213.5C 347.5,218.5 347.5,223.5 347.5,228.5C 345.833,228.5 344.167,228.5 342.5,228.5C 342.5,216.5 342.5,204.5 342.5,192.5 Z M 347.5,197.5 C 352.179,197.334 356.845,197.501 361.5,198C 366.329,200.837 366.663,204.171 362.5,208C 357.511,208.499 352.511,208.666 347.5,208.5C 347.5,204.833 347.5,201.167 347.5,197.5 Z"/></g>
<g><path style="opacity:0.791" fill="#fdfdfd" d="M 377.5,192.5 C 379.5,192.5 381.5,192.5 383.5,192.5C 383.5,204.5 383.5,216.5 383.5,228.5C 381.5,228.5 379.5,228.5 377.5,228.5C 377.5,216.5 377.5,204.5 377.5,192.5 Z"/></g>
<g><path style="opacity:0.992" fill="#53b1c9" d="M 113.5,201.5 C 128.585,201.414 134.752,208.748 132,223.5C 125.317,233.26 116.817,235.093 106.5,229C 98.3252,217.04 100.659,207.873 113.5,201.5 Z M 115.5,208.5 C 123.002,209.161 126.169,213.161 125,220.5C 121.987,225.535 117.82,226.702 112.5,224C 107.292,217.76 108.292,212.594 115.5,208.5 Z"/></g>
<g><path style="opacity:1" fill="#51b0ca" d="M 142.5,209.5 C 149.206,211.229 151.873,215.562 150.5,222.5C 150.353,225.443 149.687,228.276 148.5,231C 160.174,240.17 172.508,248.337 185.5,255.5C 185.511,257.547 185.844,259.547 186.5,261.5C 184.953,263.933 183.953,266.599 183.5,269.5C 184.401,272.071 185.734,274.404 187.5,276.5C 188.958,277.782 190.292,277.782 191.5,276.5C 192.167,276.833 192.833,277.167 193.5,277.5C 193.279,278.735 192.612,279.735 191.5,280.5C 192.853,281.524 193.52,282.857 193.5,284.5C 186.532,283.705 181.699,280.038 179,273.5C 178.82,269.076 178.653,264.743 178.5,260.5C 167.928,253.724 157.595,246.724 147.5,239.5C 145.87,236.827 143.537,234.827 140.5,233.5C 137.857,236.266 136.857,239.599 137.5,243.5C 134.565,244.114 131.732,245.114 129,246.5C 125.184,245.693 121.35,245.026 117.5,244.5C 133.391,242.61 142.391,233.61 144.5,217.5C 143.954,214.763 143.288,212.096 142.5,209.5 Z"/></g>
<g><path style="opacity:1" fill="#52b0c9" d="M 84.5,225.5 C 87.238,226.811 89.4046,228.811 91,231.5C 91.4955,229.527 91.6621,227.527 91.5,225.5C 95.2296,234.229 101.563,240.229 110.5,243.5C 107.316,244.799 103.983,245.799 100.5,246.5C 96.8656,244.035 93.3656,241.368 90,238.5C 79.9,244.464 70.0667,250.797 60.5,257.5C 61.2583,254.648 61.2583,251.981 60.5,249.5C 67.7556,243.861 75.4223,238.694 83.5,234C 84.6872,232.981 85.6872,231.814 86.5,230.5C 85.5435,228.925 84.8769,227.258 84.5,225.5 Z"/></g>
<g><path style="opacity:1" fill="#51b1cb" d="M 60.5,249.5 C 61.2583,251.981 61.2583,254.648 60.5,257.5C 58.513,258.164 56.8463,259.331 55.5,261C 57.0786,275.752 50.4119,282.085 35.5,280C 25.211,274.343 22.711,266.177 28,255.5C 35.7582,247.943 43.7582,247.61 52,254.5C 54.6418,252.432 57.4752,250.765 60.5,249.5 Z M 38.5,256.5 C 47.0704,256.992 50.2371,261.326 48,269.5C 45.3981,273.212 41.8981,274.378 37.5,273C 32.9315,270.459 31.4315,266.625 33,261.5C 34.7297,259.598 36.563,257.931 38.5,256.5 Z"/></g>
<g><path style="opacity:1" fill="#51b1c7" d="M 147.5,239.5 C 146.417,239.461 145.417,239.127 144.5,238.5C 137.02,246.074 128.02,250.74 117.5,252.5C 116.376,258.448 116.21,264.448 117,270.5C 118.615,271.386 120.115,272.386 121.5,273.5C 121.53,274.497 121.03,275.164 120,275.5C 117.966,274.278 115.8,273.278 113.5,272.5C 115.534,270.401 115.868,268.068 114.5,265.5C 113.808,266.025 113.308,266.692 113,267.5C 111.855,266.316 110.688,266.316 109.5,267.5C 109.666,261.824 109.499,256.157 109,250.5C 105.953,249.438 103.12,248.105 100.5,246.5C 103.983,245.799 107.316,244.799 110.5,243.5C 112.95,243.298 115.283,243.631 117.5,244.5C 121.35,245.026 125.184,245.693 129,246.5C 131.732,245.114 134.565,244.114 137.5,243.5C 136.857,239.599 137.857,236.266 140.5,233.5C 143.537,234.827 145.87,236.827 147.5,239.5 Z"/></g>
<g><path style="opacity:1" fill="#51afc8" d="M 193.5,284.5 C 193.52,282.857 192.853,281.524 191.5,280.5C 192.612,279.735 193.279,278.735 193.5,277.5C 202.643,275.052 204.643,269.885 199.5,262C 190.595,258.904 186.095,262.071 186,271.5C 187.076,274.079 188.909,275.746 191.5,276.5C 190.292,277.782 188.958,277.782 187.5,276.5C 185.734,274.404 184.401,272.071 183.5,269.5C 183.953,266.599 184.953,263.933 186.5,261.5C 185.844,259.547 185.511,257.547 185.5,255.5C 195.865,250.389 203.698,253.056 209,263.5C 210.897,275.764 205.731,282.764 193.5,284.5 Z M 193.5,277.5 C 192.833,277.167 192.167,276.833 191.5,276.5C 188.909,275.746 187.076,274.079 186,271.5C 186.095,262.071 190.595,258.904 199.5,262C 204.643,269.885 202.643,275.052 193.5,277.5 Z"/></g>
<g><path style="opacity:0.654" fill="#f9fbfa" d="M 287.5,263.5 C 294.843,264.022 296.843,267.522 293.5,274C 290.854,274.497 288.187,274.664 285.5,274.5C 285.036,270.498 285.702,266.831 287.5,263.5 Z M 288.5,266.5 C 289.833,266.5 291.167,266.5 292.5,266.5C 292.5,268.5 292.5,270.5 292.5,272.5C 291.167,272.5 289.833,272.5 288.5,272.5C 288.5,270.5 288.5,268.5 288.5,266.5 Z"/></g>
<g><path style="opacity:0.622" fill="#fafafa" d="M 314.5,263.5 C 316.839,264.637 319.172,264.804 321.5,264C 322.609,265.813 321.942,266.646 319.5,266.5C 318.833,277.167 318.167,277.167 317.5,266.5C 314.433,266.879 313.433,265.879 314.5,263.5 Z"/></g>
<g><path style="opacity:0.55" fill="#fbfbfb" d="M 303.5,264.5 C 304.5,264.5 305.5,264.5 306.5,264.5C 307.199,267.573 308.199,270.573 309.5,273.5C 309,273.833 308.5,274.167 308,274.5C 306.908,273.704 305.741,273.037 304.5,272.5C 302.95,273.732 301.283,274.232 299.5,274C 300.977,270.88 302.311,267.714 303.5,264.5 Z"/></g>
<g><path style="opacity:0.773" fill="#fcfcfc" d="M 349.5,264.5 C 350.777,265.694 351.444,267.36 351.5,269.5C 351.167,271.167 350.833,272.833 350.5,274.5C 349.513,271.232 349.18,267.898 349.5,264.5 Z"/></g>
<g><path style="opacity:0.603" fill="#f8f9f9" d="M 357.5,264.5 C 360.888,264.874 362.722,266.874 363,270.5C 364.115,269 364.948,267.333 365.5,265.5C 366.325,264.614 367.325,264.281 368.5,264.5C 368.82,267.898 368.487,271.232 367.5,274.5C 366.702,272.922 366.202,271.256 366,269.5C 365.846,272.525 364.346,274.191 361.5,274.5C 361.167,270.5 360.833,270.5 360.5,274.5C 359.5,274.5 358.5,274.5 357.5,274.5C 357.5,271.167 357.5,267.833 357.5,264.5 Z"/></g>
<g><path style="opacity:0.631" fill="#fafafa" d="M 390.5,264.5 C 391.822,264.33 392.989,264.663 394,265.5C 395.523,268.491 396.023,271.491 395.5,274.5C 393.201,271.986 390.868,271.986 388.5,274.5C 388.167,274.167 387.833,273.833 387.5,273.5C 388.705,270.55 389.705,267.55 390.5,264.5 Z"/></g>
<g><path style="opacity:0.716" fill="#eff1f0" d="M 375.5,263.5 C 380.934,262.98 382.934,265.146 381.5,270C 379.866,270.494 378.199,270.66 376.5,270.5C 376.762,271.978 376.429,273.311 375.5,274.5C 374.242,270.79 374.242,267.123 375.5,263.5 Z M 376.5,266.5 C 377.978,266.238 379.311,266.571 380.5,267.5C 379.833,267.833 379.167,268.167 378.5,268.5C 377.287,268.253 376.62,267.586 376.5,266.5 Z"/></g>
<g><path style="opacity:0.682" fill="#edf1ef" d="M 235.5,263.5 C 237.626,263.85 239.959,263.85 242.5,263.5C 242.5,264.5 242.5,265.5 242.5,266.5C 234.602,266.886 234.602,267.886 242.5,269.5C 234.5,270.833 234.5,272.167 242.5,273.5C 239.914,274.48 237.247,274.813 234.5,274.5C 234.244,270.731 234.577,267.064 235.5,263.5 Z"/></g>
<g><path style="opacity:0.673" fill="#f6f8f8" d="M 404.5,263.5 C 407.657,263.079 409.99,264.245 411.5,267C 409.633,267.711 408.133,267.211 407,265.5C 404.897,267.303 404.064,269.636 404.5,272.5C 406.827,272.753 408.827,272.086 410.5,270.5C 411.27,273.434 409.937,275.101 406.5,275.5C 403.29,274.601 401.623,272.434 401.5,269C 401.863,266.808 402.863,264.974 404.5,263.5 Z"/></g>
<g><path style="opacity:0.996" fill="#f1f7f6" d="M 220.5,263.5 C 222.881,264.42 225.214,264.42 227.5,263.5C 230.29,265.333 229.957,266.333 226.5,266.5C 226.5,269.167 226.5,271.833 226.5,274.5C 225.5,274.5 224.5,274.5 223.5,274.5C 223.5,271.833 223.5,269.167 223.5,266.5C 222.5,266.5 221.5,266.5 220.5,266.5C 220.5,265.5 220.5,264.5 220.5,263.5 Z"/></g>
<g><path style="opacity:0.804" fill="#f6faf9" d="M 251.5,263.5 C 254.257,263.378 256.257,264.545 257.5,267C 255.633,267.711 254.133,267.211 253,265.5C 249.667,268.167 249.667,270.833 253,273.5C 256.972,269.331 257.806,269.665 255.5,274.5C 250.876,276.236 248.209,274.569 247.5,269.5C 247.866,266.744 249.2,264.744 251.5,263.5 Z"/></g>
<g><path style="opacity:0.725" fill="#f3f5f4" d="M 262.5,264.5 C 263.5,264.5 264.5,264.5 265.5,264.5C 265.5,265.833 265.5,267.167 265.5,268.5C 266.833,268.5 268.167,268.5 269.5,268.5C 269.238,267.022 269.571,265.689 270.5,264.5C 271.833,267.833 271.833,271.167 270.5,274.5C 269.571,273.311 269.238,271.978 269.5,270.5C 268.167,270.5 266.833,270.5 265.5,270.5C 265.5,271.833 265.5,273.167 265.5,274.5C 264.5,274.5 263.5,274.5 262.5,274.5C 262.5,271.167 262.5,267.833 262.5,264.5 Z"/></g>
<g><path style="opacity:0.599" fill="#fafafa" d="M 330.5,264.5 C 331.5,264.5 332.5,264.5 333.5,264.5C 333.895,267.686 334.895,270.686 336.5,273.5C 336,273.833 335.5,274.167 335,274.5C 333.908,273.704 332.741,273.037 331.5,272.5C 329.95,273.732 328.283,274.232 326.5,274C 327.977,270.88 329.311,267.714 330.5,264.5 Z"/></g>
<g><path style="opacity:0.759" fill="#f3f4f4" d="M 417.5,263.5 C 420.231,263.637 422.898,264.137 425.5,265C 424.437,266.188 423.103,266.688 421.5,266.5C 420.833,277.167 420.167,277.167 419.5,266.5C 415.75,266.496 415.083,265.496 417.5,263.5 Z"/></g>
<g><path style="opacity:1" fill="#51b0c9" d="M 121.5,273.5 C 128.451,281.865 128.118,290.032 120.5,298C 112.726,302.769 105.559,301.936 99,295.5C 93.0928,285.586 94.9261,277.419 104.5,271C 105.793,270.51 107.127,270.343 108.5,270.5C 108.263,269.209 108.596,268.209 109.5,267.5C 110.688,266.316 111.855,266.316 113,267.5C 113.308,266.692 113.808,266.025 114.5,265.5C 115.868,268.068 115.534,270.401 113.5,272.5C 115.8,273.278 117.966,274.278 120,275.5C 121.03,275.164 121.53,274.497 121.5,273.5 Z M 110.5,276.5 C 119.632,278.929 121.632,284.095 116.5,292C 109.204,295.505 104.538,293.338 102.5,285.5C 103.137,280.537 105.804,277.537 110.5,276.5 Z"/></g>
</svg>
