<?xml version="1.0" encoding="UTF-8"?>
<!DOCTYPE svg PUBLIC "-//W3C//DTD SVG 1.1//EN" "http://www.w3.org/Graphics/SVG/1.1/DTD/svg11.dtd">
<svg xmlns="http://www.w3.org/2000/svg" version="1.1" width="1080px" height="500px" style="shape-rendering:geometricPrecision; text-rendering:geometricPrecision; image-rendering:optimizeQuality; fill-rule:evenodd; clip-rule:evenodd" xmlns:xlink="http://www.w3.org/1999/xlink">
<g><path style="opacity:1" fill="#49adc9" d="M 479.5,439.5 C 478.668,438.671 479.001,437.838 480.5,437C 485.478,434.689 488.978,431.189 491,426.5C 485.284,432.614 478.451,437.114 470.5,440C 462.023,441.033 453.689,440.533 445.5,438.5C 440.336,435.414 435.336,432.247 430.5,429C 428.108,423.934 425.275,419.1 422,414.5C 421.336,409.851 420.836,405.184 420.5,400.5C 421.311,394.23 422.645,388.063 424.5,382C 424.167,380.833 423.833,379.667 423.5,378.5C 414.589,373.595 405.923,368.261 397.5,362.5C 396.304,362.846 396.304,363.346 397.5,364C 401.167,366.333 404.833,368.667 408.5,371C 409.252,371.671 409.586,372.504 409.5,373.5C 381.475,355.063 353.309,336.73 325,318.5C 306.155,341.672 281.655,353.839 251.5,355C 251,355.5 250.5,356 250,356.5C 249.552,372.551 248.718,388.551 247.5,404.5C 248.04,405.748 248.707,406.915 249.5,408C 270.762,417.684 279.595,434.184 276,457.5C 267.547,481.91 250.38,492.41 224.5,489C 218.854,487.525 213.854,485.025 209.5,481.5C 209.435,481.062 209.601,480.728 210,480.5C 211.133,482.211 212.633,482.711 214.5,482C 193.944,466.627 189.777,447.46 202,424.5C 208.599,415.614 217.432,410.447 228.5,409C 229.333,408.167 230.167,407.333 231,406.5C 232.871,389.884 233.537,373.217 233,356.5C 231.763,367.109 231.097,377.775 231,388.5C 231.07,391.992 230.237,394.992 228.5,397.5C 229.971,382.535 230.304,367.535 229.5,352.5C 208.786,346.633 191.619,335.299 178,318.5C 147.079,339.044 115.913,359.211 84.5,379C 83.9186,379.893 83.5852,380.893 83.5,382C 86.9241,396.549 84.0908,409.715 75,421.5C 61.4736,434.559 45.6403,438.392 27.5,433C 17.4524,428.783 9.78572,421.95 4.5,412.5C 6.14402,413.366 7.81069,413.866 9.5,414C 5.08567,407.923 3.419,401.09 4.5,393.5C 3.73553,386.374 5.06887,379.707 8.5,373.5C 7.64462,372.707 6.81129,373.04 6,374.5C 5.64011,376.608 4.97345,378.608 4,380.5C 3.32924,381.252 2.4959,381.586 1.5,381.5C 10.8848,357.967 28.2181,348.134 53.5,352C 61.2454,354.037 67.912,357.87 73.5,363.5C 103.833,344 134.167,324.5 164.5,305C 165.899,303.938 166.899,302.605 167.5,301C 163.657,291.789 160.99,282.289 159.5,272.5C 160.397,271.402 161.23,271.402 162,272.5C 161.716,259.492 163.383,246.826 167,234.5C 170.241,226.026 174.574,218.026 180,210.5C 180.667,208.833 180.667,207.167 180,205.5C 169.057,193.556 157.724,181.889 146,170.5C 145.667,169.5 145.333,168.5 145,167.5C 140.841,164.341 137.008,160.841 133.5,157C 122.92,159.094 112.253,159.927 101.5,159.5C 109.112,161.559 116.779,161.892 124.5,160.5C 106.802,165.714 91.8018,161.38 79.5,147.5C 80.552,147.649 81.552,147.483 82.5,147C 73.8957,136.028 71.0624,123.528 74,109.5C 77.9135,97.8423 85.4135,89.3423 96.5,84C 90.3475,85.177 85.1809,88.3436 81,93.5C 80.6174,92.944 80.1174,92.6107 79.5,92.5C 97.1154,75.8458 116.449,73.6791 137.5,86C 151.648,98.1114 156.815,113.278 153,131.5C 151.119,137.241 148.786,142.574 146,147.5C 160.35,161.217 174.017,175.55 187,190.5C 188.586,191.376 190.086,192.376 191.5,193.5C 223.738,168.42 258.405,164.754 295.5,182.5C 298.57,179.436 301.237,176.103 303.5,172.5C 304.465,173.721 304.298,175.054 303,176.5C 301.167,179 299.333,181.5 297.5,184C 293.5,183 289.5,182 285.5,181C 287.398,181.9 289.064,183.066 290.5,184.5C 293.5,185.833 296.5,185.833 299.5,184.5C 307.776,172.94 315.609,160.94 323,148.5C 323.908,146.561 325.408,145.561 327.5,145.5C 327.343,144.127 327.51,142.793 328,141.5C 340.084,123.668 352.417,106.002 365,88.5C 365.17,84.6269 363.503,81.6269 360,79.5C 353.149,68.3939 350.815,56.3939 353,43.5C 356.952,39.207 359.619,34.207 361,28.5C 370.906,19.0848 382.739,14.5848 396.5,15C 394,14.5 391.5,14 389,13.5C 384.559,14.622 380.059,15.2886 375.5,15.5C 397.499,8.37474 414.999,14.3747 428,33.5C 438.392,56.5825 433.559,75.7492 413.5,91C 403.256,96.313 392.423,97.813 381,95.5C 379.605,95.7804 378.438,96.4471 377.5,97.5C 356,129.167 334.5,160.833 313,192.5C 312.333,193.5 312.333,194.5 313,195.5C 336.76,218.44 346.426,246.44 342,279.5C 340.044,287.146 337.544,294.646 334.5,302C 367.5,323.667 400.5,345.333 433.5,367C 439.164,365.351 444.831,363.351 450.5,361C 481.066,358.432 498.399,372.265 502.5,402.5C 501.649,419.227 493.982,431.56 479.5,439.5 Z M 385.5,31.5 C 402.588,29.929 412.254,37.5956 414.5,54.5C 412.871,68.7962 404.871,76.7962 390.5,78.5C 376.665,76.3329 368.998,68.3329 367.5,54.5C 368.337,42.676 374.337,35.0094 385.5,31.5 Z M 111.5,96.5 C 130.084,99.326 137.584,109.993 134,128.5C 124.483,144.851 111.816,147.851 96,137.5C 89.9193,130.255 87.9193,121.922 90,112.5C 93.9925,102.648 101.159,97.3143 111.5,96.5 Z M 244.5,190.5 C 286.012,189.855 312.178,209.521 323,249.5C 327.14,277.082 318.974,300.249 298.5,319C 275.327,336.754 249.994,340.421 222.5,330C 184.258,309.646 171.092,278.48 183,236.5C 195.199,209.77 215.699,194.436 244.5,190.5 Z M 242.5,240.5 C 249.257,240.123 255.924,240.623 262.5,242C 275.808,252.221 277.974,264.388 269,278.5C 259.431,287.628 248.931,288.795 237.5,282C 228.612,274.254 226.112,264.754 230,253.5C 233.025,247.977 237.191,243.644 242.5,240.5 Z M 39.5,369.5 C 58.0654,369.635 66.8988,378.968 66,397.5C 61.5872,411.3 52.0872,417.467 37.5,416C 21.1204,408.755 16.287,396.921 23,380.5C 27.3927,374.901 32.8927,371.234 39.5,369.5 Z M 454.5,379.5 C 475.319,378.819 484.486,388.819 482,409.5C 476.853,420.982 468.02,426.149 455.5,425C 437.702,417.912 432.868,405.745 441,388.5C 444.921,384.313 449.421,381.313 454.5,379.5 Z M 226.5,424.5 C 248.444,422.611 258.611,432.611 257,454.5C 250.689,468.405 240.189,473.239 225.5,469C 211.167,460.474 207.667,448.64 215,433.5C 218.446,429.878 222.279,426.878 226.5,424.5 Z"/></g>
<g><path style="opacity:0.736" fill="#43a0b9" d="M 303.5,172.5 C 322.437,144.387 341.604,116.387 361,88.5C 361.667,87.5 361.667,86.5 361,85.5C 345.974,67.4687 344.641,48.4687 357,28.5C 362.234,22.7542 368.401,18.4209 375.5,15.5C 380.059,15.2886 384.559,14.622 389,13.5C 391.5,14 394,14.5 396.5,15C 382.739,14.5848 370.906,19.0848 361,28.5C 359.619,34.207 356.952,39.207 353,43.5C 350.815,56.3939 353.149,68.3939 360,79.5C 363.503,81.6269 365.17,84.6269 365,88.5C 352.417,106.002 340.084,123.668 328,141.5C 327.51,142.793 327.343,144.127 327.5,145.5C 325.408,145.561 323.908,146.561 323,148.5C 315.609,160.94 307.776,172.94 299.5,184.5C 296.5,185.833 293.5,185.833 290.5,184.5C 289.064,183.066 287.398,181.9 285.5,181C 289.5,182 293.5,183 297.5,184C 299.333,181.5 301.167,179 303,176.5C 304.298,175.054 304.465,173.721 303.5,172.5 Z"/></g>
<g><path style="opacity:0.655" fill="#4198b0" d="M 79.5,147.5 C 69.6857,134.623 67.1857,120.289 72,104.5C 73.9018,100.104 76.4018,96.1041 79.5,92.5C 80.1174,92.6107 80.6174,92.944 81,93.5C 85.1809,88.3436 90.3475,85.177 96.5,84C 85.4135,89.3423 77.9135,97.8423 74,109.5C 71.0624,123.528 73.8957,136.028 82.5,147C 81.552,147.483 80.552,147.649 79.5,147.5 Z"/></g>
<g><path style="opacity:0.909" fill="#f9f8f8" d="M 960.5,195.5 C 992.633,195.531 1009.3,211.698 1010.5,244C 1011.18,264.989 1002.51,280.656 984.5,291C 971.488,295.659 958.488,295.659 945.5,291C 931.544,283.61 923.044,272.11 920,256.5C 915.601,234.179 922.101,216.013 939.5,202C 946.105,198.106 953.105,195.939 960.5,195.5 Z M 994.5,238.5 C 995.113,247.064 994.113,255.398 991.5,263.5C 981.127,280.516 966.793,284.683 948.5,276C 938.711,268.086 933.711,257.752 933.5,245C 933.745,232.57 938.412,222.236 947.5,214C 973.151,203.158 988.818,211.325 994.5,238.5 Z"/></g>
<g><path style="opacity:0.982" fill="#fbfbfb" d="M 572.5,271.5 C 573.091,272.151 573.757,272.818 574.5,273.5C 573.5,274.333 572.5,275.167 571.5,276C 573.107,275.981 574.774,275.815 576.5,275.5C 584.423,251.23 592.423,227.063 600.5,203C 600.167,202.5 599.833,202 599.5,201.5C 598.358,202.826 597.024,203.826 595.5,204.5C 595.935,200.898 597.935,198.732 601.5,198C 605.833,197.333 610.167,197.333 614.5,198C 616.544,198.498 617.878,199.665 618.5,201.5C 617.292,200.766 615.959,200.433 614.5,200.5C 614.5,230.5 614.5,260.5 614.5,290.5C 615.5,290.5 616.5,290.5 617.5,290.5C 613.167,291.833 608.833,291.833 604.5,290.5C 605.675,290.719 606.675,290.386 607.5,289.5C 606.51,264.878 606.176,240.212 606.5,215.5C 605.022,215.238 603.689,215.571 602.5,216.5C 604.042,218.879 604.709,221.546 604.5,224.5C 604.495,226.696 604.162,228.696 603.5,230.5C 603.663,228.143 603.497,225.81 603,223.5C 598.217,237.358 593.384,251.024 588.5,264.5C 587.842,263.602 587.176,262.602 586.5,261.5C 583.496,270.226 580.496,278.892 577.5,287.5C 573.572,289.092 570.072,288.425 567,285.5C 564.468,276.901 562.135,268.234 560,259.5C 553.527,244.912 548.36,229.912 544.5,214.5C 542.533,214.261 540.699,214.594 539,215.5C 538.5,239.831 538.333,264.164 538.5,288.5C 536.167,288.5 533.833,288.5 531.5,288.5C 531.5,259.167 531.5,229.833 531.5,200.5C 530.041,200.433 528.708,200.766 527.5,201.5C 527.414,200.504 527.748,199.671 528.5,199C 530.423,198.192 532.423,197.692 534.5,197.5C 538.092,197.915 541.759,198.081 545.5,198C 546.931,198.465 548.097,199.299 549,200.5C 556.543,224.294 564.376,247.961 572.5,271.5 Z"/></g>
<g><path style="opacity:0.845" fill="#f9f9f9" d="M 679.5,253.5 C 681.563,252.628 683.563,251.462 685.5,250C 673.167,249.333 660.833,249.333 648.5,250C 647.398,252.401 647.231,254.901 648,257.5C 648.49,256.207 648.657,254.873 648.5,253.5C 649.5,253.5 650.5,253.5 651.5,253.5C 650.991,265.428 650.824,277.428 651,289.5C 648.787,290.76 646.287,291.426 643.5,291.5C 640.911,291.473 638.411,291.139 636,290.5C 635.167,260.161 635.333,229.828 636.5,199.5C 644.905,197.987 653.405,197.32 662,197.5C 672.397,196.918 682.564,198.085 692.5,201C 698.792,203.962 702.959,208.795 705,215.5C 709.027,229.77 705.194,241.27 693.5,250C 688.872,251.49 684.206,252.657 679.5,253.5 Z M 651.5,211.5 C 662.603,211.046 673.603,211.546 684.5,213C 690.696,218.663 692.196,225.497 689,233.5C 686.519,237.314 683.019,239.481 678.5,240C 669.5,240.667 660.5,240.667 651.5,240C 650.179,230.5 650.179,221 651.5,211.5 Z"/></g>
<g><path style="opacity:0.95" fill="#fcfcfc" d="M 787.5,202.5 C 786.265,202.279 785.265,201.612 784.5,200.5C 783.779,202.686 783.113,204.853 782.5,207C 765.5,207.333 748.5,207.667 731.5,208C 729.675,209.466 729.175,211.299 730,213.5C 730.567,211.017 731.733,210.35 733.5,211.5C 733.5,219.833 733.5,228.167 733.5,236.5C 749.17,236.333 764.837,236.5 780.5,237C 781.416,237.278 782.082,237.778 782.5,238.5C 765.143,238.762 747.81,238.429 730.5,237.5C 730.667,232.826 731.001,228.159 731.5,223.5C 731.493,220.408 730.993,217.408 730,214.5C 729.197,222.882 729.364,231.215 730.5,239.5C 746.82,240.499 763.153,240.833 779.5,240.5C 779.5,242.5 779.5,244.5 779.5,246.5C 763.497,246.333 747.497,246.5 731.5,247C 731.043,247.414 730.709,247.914 730.5,248.5C 732.631,249.169 734.631,249.835 736.5,250.5C 734.41,250.45 733.077,251.45 732.5,253.5C 733.47,261.778 733.803,270.111 733.5,278.5C 751.17,278.333 768.836,278.5 786.5,279C 788.045,280.822 788.712,282.989 788.5,285.5C 788.46,287.429 788.127,289.262 787.5,291C 764.663,291.83 741.996,291.663 719.5,290.5C 740.169,290.667 760.836,290.5 781.5,290C 762.076,288.839 742.576,288.006 723,287.5C 722.5,258.502 722.333,229.502 722.5,200.5C 720.876,200.36 719.71,201.027 719,202.5C 718.617,201.944 718.117,201.611 717.5,201.5C 717.414,200.504 717.748,199.671 718.5,199C 720.167,198.667 721.833,198.333 723.5,198C 743.167,197.333 762.833,197.333 782.5,198C 785.901,197.734 787.567,199.234 787.5,202.5 Z"/></g>
<g><path style="opacity:0.888" fill="#f8f8f8" d="M 844.5,252.5 C 846.969,251.683 849.635,251.183 852.5,251C 852.167,250.667 851.833,250.333 851.5,250C 839.167,249.333 826.833,249.333 814.5,250C 814,250.5 813.5,251 813,251.5C 812.5,263.829 812.333,276.162 812.5,288.5C 809.833,288.5 807.167,288.5 804.5,288.5C 804.5,259.167 804.5,229.833 804.5,200.5C 803.5,200.5 802.5,200.5 801.5,200.5C 802.315,198.698 803.815,197.698 806,197.5C 819.337,197.388 832.837,197.555 846.5,198C 869.667,199.511 878.834,211.677 874,234.5C 871.741,238.595 868.907,242.262 865.5,245.5C 869.312,247.817 871.812,251.15 873,255.5C 873.833,264.821 874.499,274.155 875,283.5C 877.944,285.372 879.111,288.039 878.5,291.5C 873.156,291.666 867.823,291.499 862.5,291C 862,290.5 861.5,290 861,289.5C 860,279.833 859,270.167 858,260.5C 855.483,254.653 850.983,251.986 844.5,252.5 Z M 816.5,211.5 C 828.505,211.333 840.505,211.5 852.5,212C 860.664,217.5 862.498,224.667 858,233.5C 856.457,235.378 854.624,236.878 852.5,238C 840.562,239.415 828.562,239.915 816.5,239.5C 816.5,230.167 816.5,220.833 816.5,211.5 Z"/></g>
<g><path style="opacity:0.968" fill="#fefefe" d="M 906.5,273.5 C 905.732,272.737 905.232,271.737 905,270.5C 904.833,246.826 904.333,223.16 903.5,199.5C 902.5,229.159 902.167,258.826 902.5,288.5C 900.167,288.5 897.833,288.5 895.5,288.5C 895.171,258.926 895.505,229.426 896.5,200C 894.803,199.616 893.137,199.782 891.5,200.5C 892.406,199.035 893.739,198.035 895.5,197.5C 898.034,198.788 900.534,198.788 903,197.5C 904,198.167 905,198.833 906,199.5C 906.5,224.164 906.667,248.831 906.5,273.5 Z"/></g>
<g><path style="opacity:0.981" fill="#fcfcfc" d="M 433.5,270.5 C 433.884,272.665 433.217,274.332 431.5,275.5C 430.236,270.303 428.403,265.303 426,260.5C 426.567,265.993 427.9,271.326 430,276.5C 431.779,277.479 433.445,277.146 435,275.5C 443.123,251.13 451.29,226.63 459.5,202C 459.333,201.5 459.167,201 459,200.5C 458.241,202.063 457.074,203.063 455.5,203.5C 455.738,200.852 457.072,199.018 459.5,198C 464.5,197.333 469.5,197.333 474.5,198C 475.942,198.377 476.942,199.21 477.5,200.5C 476.5,200.5 475.5,200.5 474.5,200.5C 474.5,229.833 474.5,259.167 474.5,288.5C 472.167,288.5 469.833,288.5 467.5,288.5C 467.667,264.498 467.5,240.498 467,216.5C 466.722,215.584 466.222,214.918 465.5,214.5C 463.517,214.157 462.183,214.824 461.5,216.5C 460.768,217.808 459.934,219.142 459,220.5C 452.559,241.68 445.892,262.68 439,283.5C 436.928,288.143 433.428,289.643 428.5,288C 427.874,287.25 427.374,286.416 427,285.5C 419.438,261.757 411.771,238.09 404,214.5C 402.759,212.579 401.259,212.246 399.5,213.5C 398.51,238.455 398.176,263.455 398.5,288.5C 396.167,288.5 393.833,288.5 391.5,288.5C 391.5,259.167 391.5,229.833 391.5,200.5C 395.846,200.666 400.179,200.499 404.5,200C 399.177,199.501 393.844,199.334 388.5,199.5C 388.611,198.883 388.944,198.383 389.5,198C 394.833,197.333 400.167,197.333 405.5,198C 406.416,198.374 407.25,198.874 408,199.5C 416,223.5 424,247.5 432,271.5C 432.383,270.944 432.883,270.611 433.5,270.5 Z"/></g>
<g><path style="opacity:1" fill="#f8f9f8" d="M 510.5,271.5 C 509.691,269.708 509.191,267.708 509,265.5C 508.667,243.833 508.333,222.167 508,200.5C 507.5,230.165 507.333,259.831 507.5,289.5C 508.5,289.5 509.5,289.5 510.5,289.5C 510.389,290.117 510.056,290.617 509.5,291C 507.167,291.167 504.833,291.333 502.5,291.5C 499.713,291.426 497.213,290.76 495,289.5C 494.333,259.833 494.333,230.167 495,200.5C 496.441,199.13 498.108,198.13 500,197.5C 502.132,198.78 504.298,198.78 506.5,197.5C 507.748,198.04 508.915,198.707 510,199.5C 510.5,223.498 510.667,247.498 510.5,271.5 Z"/></g>
<g><path style="opacity:0.929" fill="#d9d8d8" d="M 510.5,271.5 C 510.5,277.5 510.5,283.5 510.5,289.5C 509.5,289.5 508.5,289.5 507.5,289.5C 507.333,259.831 507.5,230.165 508,200.5C 508.333,222.167 508.667,243.833 509,265.5C 509.191,267.708 509.691,269.708 510.5,271.5 Z"/></g>
<g><path style="opacity:0.937" fill="#c9c9c9" d="M 496.5,200.5 C 497.833,214.818 498.499,229.484 498.5,244.5C 498.167,259.167 497.833,273.833 497.5,288.5C 496.5,259.174 496.167,229.841 496.5,200.5 Z"/></g>
<g><path style="opacity:1" fill="#e7e7e6" d="M 719.5,290.5 C 718.007,289.688 717.34,288.355 717.5,286.5C 718.816,258.164 718.816,229.831 717.5,201.5C 718.117,201.611 718.617,201.944 719,202.5C 719.71,201.027 720.876,200.36 722.5,200.5C 722.333,229.502 722.5,258.502 723,287.5C 742.576,288.006 762.076,288.839 781.5,290C 760.836,290.5 740.169,290.667 719.5,290.5 Z"/></g>
<g><path style="opacity:0.224" fill="#43a0b9" d="M 159.5,272.5 C 157.615,248.836 163.615,227.503 177.5,208.5C 162.349,192.182 147.016,176.015 131.5,160C 129.153,159.666 126.819,159.833 124.5,160.5C 116.779,161.892 109.112,161.559 101.5,159.5C 112.253,159.927 122.92,159.094 133.5,157C 137.008,160.841 140.841,164.341 145,167.5C 145.333,168.5 145.667,169.5 146,170.5C 157.724,181.889 169.057,193.556 180,205.5C 180.667,207.167 180.667,208.833 180,210.5C 174.574,218.026 170.241,226.026 167,234.5C 163.383,246.826 161.716,259.492 162,272.5C 161.23,271.402 160.397,271.402 159.5,272.5 Z"/></g>
<g><path style="opacity:0.854" fill="#d0d0d0" d="M 637.5,202.5 C 638.833,216.651 639.499,231.151 639.5,246C 639.167,260.5 638.833,275 638.5,289.5C 637.5,260.508 637.167,231.508 637.5,202.5 Z"/></g>
<g><path style="opacity:0.351" fill="#e8e8e8" d="M 787.5,202.5 C 787.98,205.685 787.314,208.519 785.5,211C 768.17,211.5 750.837,211.667 733.5,211.5C 731.733,210.35 730.567,211.017 730,213.5C 729.175,211.299 729.675,209.466 731.5,208C 748.5,207.667 765.5,207.333 782.5,207C 783.113,204.853 783.779,202.686 784.5,200.5C 785.265,201.612 786.265,202.279 787.5,202.5 Z"/></g>
<g><path style="opacity:1" fill="#e7e7e7" d="M 572.5,271.5 C 581.484,249.811 589.151,227.478 595.5,204.5C 597.024,203.826 598.358,202.826 599.5,201.5C 599.833,202 600.167,202.5 600.5,203C 592.423,227.063 584.423,251.23 576.5,275.5C 574.774,275.815 573.107,275.981 571.5,276C 572.5,275.167 573.5,274.333 574.5,273.5C 573.757,272.818 573.091,272.151 572.5,271.5 Z"/></g>
<g><path style="opacity:1" fill="#49aec9" d="M 238.5,303.5 C 245.63,303.491 252.963,303.324 260.5,303C 261.833,302.333 263.167,301.667 264.5,301C 245.267,305.408 229.767,299.908 218,284.5C 216.363,281.283 215.03,277.95 214,274.5C 209.286,255.967 214.452,241.134 229.5,230C 239.199,224.663 249.532,222.663 260.5,224C 253.403,222.617 246.403,222.117 239.5,222.5C 264.245,217.573 281.745,226.573 292,249.5C 297.209,272.571 289.709,290.071 269.5,302C 259.293,305.816 248.959,306.316 238.5,303.5 Z M 242.5,240.5 C 237.191,243.644 233.025,247.977 230,253.5C 226.112,264.754 228.612,274.254 237.5,282C 248.931,288.795 259.431,287.628 269,278.5C 277.974,264.388 275.808,252.221 262.5,242C 255.924,240.623 249.257,240.123 242.5,240.5 Z"/></g>
<g><path style="opacity:0.127" fill="#dedede" d="M 604.5,290.5 C 603.503,270.674 603.17,250.674 603.5,230.5C 604.162,228.696 604.495,226.696 604.5,224.5C 604.709,221.546 604.042,218.879 602.5,216.5C 603.689,215.571 605.022,215.238 606.5,215.5C 606.176,240.212 606.51,264.878 607.5,289.5C 606.675,290.386 605.675,290.719 604.5,290.5 Z"/></g>
<g><path style="opacity:0.697" fill="#cecece" d="M 387.5,208.5 C 387.5,206.167 387.5,203.833 387.5,201.5C 388.15,201.196 388.817,200.863 389.5,200.5C 390.833,230.167 390.833,259.833 389.5,289.5C 388.833,262.336 388.167,235.336 387.5,208.5 Z"/></g>
<g><path style="opacity:0.9" fill="#44a1bb" d="M 239.5,222.5 C 246.403,222.117 253.403,222.617 260.5,224C 249.532,222.663 239.199,224.663 229.5,230C 214.452,241.134 209.286,255.967 214,274.5C 215.03,277.95 216.363,281.283 218,284.5C 229.767,299.908 245.267,305.408 264.5,301C 263.167,301.667 261.833,302.333 260.5,303C 252.963,303.324 245.63,303.491 238.5,303.5C 215.836,294.52 206.336,277.853 210,253.5C 214.187,237.812 224.021,227.479 239.5,222.5 Z"/></g>
<g><path style="opacity:0.898" fill="#e7e7e7" d="M 388.5,199.5 C 393.844,199.334 399.177,199.501 404.5,200C 400.179,200.499 395.846,200.666 391.5,200.5C 391.5,229.833 391.5,259.167 391.5,288.5C 393.833,288.5 396.167,288.5 398.5,288.5C 398.176,263.455 398.51,238.455 399.5,213.5C 401.259,212.246 402.759,212.579 404,214.5C 411.771,238.09 419.438,261.757 427,285.5C 427.374,286.416 427.874,287.25 428.5,288C 433.428,289.643 436.928,288.143 439,283.5C 445.892,262.68 452.559,241.68 459,220.5C 459.934,219.142 460.768,217.808 461.5,216.5C 462.75,216.577 463.583,217.244 464,218.5C 464.167,242.174 464.667,265.84 465.5,289.5C 466.805,264.477 466.805,239.477 465.5,214.5C 466.222,214.918 466.722,215.584 467,216.5C 467.5,240.498 467.667,264.498 467.5,288.5C 469.833,288.5 472.167,288.5 474.5,288.5C 474.5,259.167 474.5,229.833 474.5,200.5C 475.5,200.5 476.5,200.5 477.5,200.5C 477.667,230.502 477.5,260.502 477,290.5C 474.757,291.137 472.424,291.47 470,291.5C 467.375,291.419 465.041,290.752 463,289.5C 463.777,267.858 463.61,246.192 462.5,224.5C 455.058,246.781 447.391,268.947 439.5,291C 434.833,291.667 430.167,291.667 425.5,291C 417.795,268.885 410.295,246.718 403,224.5C 402.009,225.43 401.509,226.596 401.5,228C 401.812,248.74 401.979,269.573 402,290.5C 397.263,291.469 392.43,291.803 387.5,291.5C 387.5,263.833 387.5,236.167 387.5,208.5C 388.167,235.336 388.833,262.336 389.5,289.5C 390.833,259.833 390.833,230.167 389.5,200.5C 388.817,200.863 388.15,201.196 387.5,201.5C 387.328,200.508 387.662,199.842 388.5,199.5 Z"/></g>
<g><path style="opacity:0.968" fill="#d4d4d4" d="M 465.5,214.5 C 466.805,239.477 466.805,264.477 465.5,289.5C 464.667,265.84 464.167,242.174 464,218.5C 463.583,217.244 462.75,216.577 461.5,216.5C 462.183,214.824 463.517,214.157 465.5,214.5 Z"/></g>
<g><path style="opacity:0.156" fill="#e0e0e0" d="M 782.5,238.5 C 784.173,242.594 783.84,246.427 781.5,250C 766.504,250.5 751.504,250.667 736.5,250.5C 734.631,249.835 732.631,249.169 730.5,248.5C 730.709,247.914 731.043,247.414 731.5,247C 747.497,246.5 763.497,246.333 779.5,246.5C 779.5,244.5 779.5,242.5 779.5,240.5C 763.153,240.833 746.82,240.499 730.5,239.5C 729.364,231.215 729.197,222.882 730,214.5C 730.993,217.408 731.493,220.408 731.5,223.5C 731.001,228.159 730.667,232.826 730.5,237.5C 747.81,238.429 765.143,238.762 782.5,238.5 Z"/></g>
<g><path style="opacity:0.192" fill="#e1e1e1" d="M 433.5,270.5 C 440.682,248.102 448.015,225.769 455.5,203.5C 457.074,203.063 458.241,202.063 459,200.5C 459.167,201 459.333,201.5 459.5,202C 451.29,226.63 443.123,251.13 435,275.5C 433.445,277.146 431.779,277.479 430,276.5C 427.9,271.326 426.567,265.993 426,260.5C 428.403,265.303 430.236,270.303 431.5,275.5C 433.217,274.332 433.884,272.665 433.5,270.5 Z"/></g>
<g><path style="opacity:0.066" fill="#e0e0e0" d="M 679.5,253.5 C 670.167,253.5 660.833,253.5 651.5,253.5C 650.5,253.5 649.5,253.5 648.5,253.5C 648.657,254.873 648.49,256.207 648,257.5C 647.231,254.901 647.398,252.401 648.5,250C 660.833,249.333 673.167,249.333 685.5,250C 683.563,251.462 681.563,252.628 679.5,253.5 Z"/></g>
<g><path style="opacity:0.21" fill="#dedfdf" d="M 618.5,201.5 C 618.831,231.338 618.498,261.005 617.5,290.5C 616.5,290.5 615.5,290.5 614.5,290.5C 614.5,260.5 614.5,230.5 614.5,200.5C 615.959,200.433 617.292,200.766 618.5,201.5 Z"/></g>
<g><path style="opacity:0.865" fill="#dadada" d="M 991.5,263.5 C 994.113,255.398 995.113,247.064 994.5,238.5C 996.078,232.881 995.078,227.548 991.5,222.5C 991.846,221.304 992.346,221.304 993,222.5C 999.632,235.861 1000.3,249.527 995,263.5C 992.973,268.215 989.973,272.215 986,275.5C 985.333,274.833 985.333,274.167 986,273.5C 989.17,270.822 991.003,267.488 991.5,263.5 Z"/></g>
<g><path style="opacity:0.655" fill="#dddddd" d="M 588.5,264.5 C 586.429,273.379 583.762,282.046 580.5,290.5C 575.5,291.833 570.5,291.833 565.5,290.5C 558.307,268.397 550.807,246.397 543,224.5C 542.349,246.439 542.349,268.439 543,290.5C 538,291.833 533,291.833 528,290.5C 527.5,260.835 527.333,231.169 527.5,201.5C 528.708,200.766 530.041,200.433 531.5,200.5C 531.5,229.833 531.5,259.167 531.5,288.5C 533.833,288.5 536.167,288.5 538.5,288.5C 538.333,264.164 538.5,239.831 539,215.5C 540.699,214.594 542.533,214.261 544.5,214.5C 548.36,229.912 553.527,244.912 560,259.5C 562.135,268.234 564.468,276.901 567,285.5C 570.072,288.425 573.572,289.092 577.5,287.5C 580.496,278.892 583.496,270.226 586.5,261.5C 587.176,262.602 587.842,263.602 588.5,264.5 Z"/></g>
<g><path style="opacity:0.316" fill="#dedede" d="M 801.5,200.5 C 802.5,200.5 803.5,200.5 804.5,200.5C 804.5,229.833 804.5,259.167 804.5,288.5C 807.167,288.5 809.833,288.5 812.5,288.5C 812.333,276.162 812.5,263.829 813,251.5C 813.5,251 814,250.5 814.5,250C 826.833,249.333 839.167,249.333 851.5,250C 851.833,250.333 852.167,250.667 852.5,251C 849.635,251.183 846.969,251.683 844.5,252.5C 835.446,252.194 826.446,252.528 817.5,253.5C 816.667,265.82 816.167,278.153 816,290.5C 811.218,291.802 806.385,291.802 801.5,290.5C 800.355,260.339 800.355,230.339 801.5,200.5 Z"/></g>
<g><path style="opacity:0.907" fill="#eaeaea" d="M 906.5,273.5 C 906.561,278.878 906.728,284.212 907,289.5C 906.5,290 906,290.5 905.5,291C 900.845,291.499 896.179,291.666 891.5,291.5C 891.5,261.167 891.5,230.833 891.5,200.5C 893.137,199.782 894.803,199.616 896.5,200C 895.505,229.426 895.171,258.926 895.5,288.5C 897.833,288.5 900.167,288.5 902.5,288.5C 902.167,258.826 902.5,229.159 903.5,199.5C 904.333,223.16 904.833,246.826 905,270.5C 905.232,271.737 905.732,272.737 906.5,273.5 Z"/></g>
<g><path style="opacity:0.769" fill="#d4d5d5" d="M 701.5,383.5 C 720.099,382.274 726.599,390.607 721,408.5C 717.212,412.926 712.378,414.592 706.5,413.5C 703.248,413.479 700.081,413.146 697,412.5C 697.657,404.323 697.49,396.156 696.5,388C 696.735,387.127 697.069,386.293 697.5,385.5C 698.949,384.828 700.282,384.161 701.5,383.5 Z M 704.5,390.5 C 714.186,389.881 717.686,394.214 715,403.5C 711.876,407.66 708.209,408.326 704,405.5C 703.274,400.448 703.441,395.448 704.5,390.5 Z"/></g>
<g><path style="opacity:0.754" fill="#d9dada" d="M 774.5,383.5 C 781.175,383.334 787.842,383.5 794.5,384C 797.473,385.224 798.14,387.224 796.5,390C 793.774,390.182 791.107,390.682 788.5,391.5C 788.323,398.439 788.157,405.439 788,412.5C 785.959,413.423 783.792,413.756 781.5,413.5C 781.666,406.159 781.5,398.826 781,391.5C 778.333,390.833 775.667,390.167 773,389.5C 772.257,387.126 772.757,385.126 774.5,383.5 Z"/></g>
<g><path style="opacity:0.543" fill="#dedfdf" d="M 1052.5,383.5 C 1058.77,383.734 1065.11,383.9 1071.5,384C 1074.89,385.565 1075.23,387.565 1072.5,390C 1069.91,390.226 1067.41,390.726 1065,391.5C 1064.23,397.706 1064.39,403.872 1065.5,410C 1064.21,412.946 1061.88,414.112 1058.5,413.5C 1058.39,406.594 1058.22,399.594 1058,392.5C 1055.44,390.923 1052.6,389.923 1049.5,389.5C 1047.86,386.147 1048.86,384.147 1052.5,383.5 Z"/></g>
<g><path style="opacity:0.376" fill="#d7d8d8" d="M 872.5,383.5 C 873.583,383.539 874.583,383.873 875.5,384.5C 876.552,386.542 877.219,388.708 877.5,391C 876.885,398.146 876.719,405.313 877,412.5C 874.667,413.833 872.333,413.833 870,412.5C 869.333,403.833 869.333,395.167 870,386.5C 870.698,385.309 871.531,384.309 872.5,383.5 Z"/></g>
<g><path style="opacity:0.543" fill="#d6d7d7" d="M 1019.5,383.5 C 1023.94,383.21 1028.27,383.71 1032.5,385C 1036.15,387.627 1037.15,390.96 1035.5,395C 1034.17,395.667 1032.83,395.667 1031.5,395C 1027.36,387.856 1022.86,387.689 1018,394.5C 1016.81,399.152 1017.64,403.319 1020.5,407C 1022.83,407.667 1025.17,407.667 1027.5,407C 1029.17,405.333 1030.83,403.667 1032.5,402C 1034.95,401.225 1036.62,402.058 1037.5,404.5C 1036.81,409.357 1034.14,412.523 1029.5,414C 1016.95,416.782 1010.62,411.782 1010.5,399C 1010.08,391.646 1013.08,386.48 1019.5,383.5 Z"/></g>
<g><path style="opacity:0.388" fill="#d9dada" d="M 817.5,384.5 C 820.119,384.232 822.619,384.565 825,385.5C 827.727,391.017 830.06,396.683 832,402.5C 833.562,406.014 834.395,409.681 834.5,413.5C 832.473,413.662 830.473,413.495 828.5,413C 826.877,410.92 825.377,408.754 824,406.5C 821.931,407.264 819.764,407.764 817.5,408C 816.086,413.259 812.919,414.759 808,412.5C 810.848,403.12 814.015,393.787 817.5,384.5 Z M 820.5,395.5 C 821.931,396.78 822.598,398.447 822.5,400.5C 821.325,400.719 820.325,400.386 819.5,399.5C 820.246,398.264 820.579,396.93 820.5,395.5 Z"/></g>
<g><path style="opacity:0.655" fill="#bcc7ca" d="M 524.5,383.5 C 531.257,383.123 537.924,383.623 544.5,385C 546.973,386.402 546.973,387.902 544.5,389.5C 541.916,390.393 539.249,390.726 536.5,390.5C 536.666,397.841 536.5,405.174 536,412.5C 534.274,413.576 532.441,413.743 530.5,413C 529.685,405.913 529.185,398.747 529,391.5C 526.595,390.726 524.095,390.226 521.5,390C 520.643,389.311 519.977,388.478 519.5,387.5C 520.654,385.435 522.32,384.102 524.5,383.5 Z"/></g>
<g><path style="opacity:0.965" fill="#cbcccc" d="M 899.5,403.5 C 899.586,402.504 899.252,401.671 898.5,401C 900.25,399.246 900.917,397.079 900.5,394.5C 901.833,394.5 903.167,394.5 904.5,394.5C 905.176,396.859 906.009,399.192 907,401.5C 908.392,395.928 910.392,390.595 913,385.5C 915.868,383.575 918.535,383.575 921,385.5C 921.5,394.827 921.666,404.161 921.5,413.5C 919.208,413.756 917.041,413.423 915,412.5C 914.667,408.833 914.333,405.167 914,401.5C 913.206,404.471 912.539,407.471 912,410.5C 909.525,413.524 906.525,414.19 903,412.5C 901.704,409.429 900.538,406.429 899.5,403.5 Z"/></g>
<g><path style="opacity:0.902" fill="#dbddde" d="M 637.5,383.5 C 639.371,383.859 640.871,384.859 642,386.5C 642.497,389.146 642.664,391.813 642.5,394.5C 645.518,394.665 648.518,394.498 651.5,394C 652.282,391.26 652.782,388.426 653,385.5C 654.888,383.078 656.888,383.078 659,385.5C 659.5,394.827 659.666,404.161 659.5,413.5C 657.208,413.756 655.041,413.423 653,412.5C 652.788,409.242 652.288,406.076 651.5,403C 648.518,402.502 645.518,402.335 642.5,402.5C 642.665,405.85 642.498,409.183 642,412.5C 639.358,414.059 637.025,413.725 635,411.5C 634.333,403.167 634.333,394.833 635,386.5C 635.698,385.309 636.531,384.309 637.5,383.5 Z"/></g>
<g><path style="opacity:0.759" fill="#c1c1c1" d="M 899.5,403.5 C 899.5,406.167 899.5,408.833 899.5,411.5C 897.609,412.536 895.776,412.536 894,411.5C 893.169,404.476 893.336,397.476 894.5,390.5C 895.982,394.344 896.815,398.344 897,402.5C 897.671,403.252 898.504,403.586 899.5,403.5 Z"/></g>
<g><path style="opacity:0.456" fill="#e2e3e3" d="M 904.5,394.5 C 903.167,394.5 901.833,394.5 900.5,394.5C 900.917,397.079 900.25,399.246 898.5,401C 899.252,401.671 899.586,402.504 899.5,403.5C 898.504,403.586 897.671,403.252 897,402.5C 896.815,398.344 895.982,394.344 894.5,390.5C 893.336,397.476 893.169,404.476 894,411.5C 895.776,412.536 897.609,412.536 899.5,411.5C 899.389,412.117 899.056,412.617 898.5,413C 896.527,413.495 894.527,413.662 892.5,413.5C 892.5,403.833 892.5,394.167 892.5,384.5C 895.11,383.498 897.776,383.665 900.5,385C 902.128,388.052 903.461,391.218 904.5,394.5 Z"/></g>
<g><path style="opacity:0.775" fill="#d4d5d5" d="M 745.5,384.5 C 748.365,384.055 750.865,384.722 753,386.5C 756.559,395.34 759.392,404.34 761.5,413.5C 756.213,414.862 753.546,412.862 753.5,407.5C 750.167,407.5 746.833,407.5 743.5,407.5C 743.624,412.547 741.291,414.38 736.5,413C 735.941,412.275 735.608,411.442 735.5,410.5C 738.534,401.683 741.867,393.016 745.5,384.5 Z M 747.5,394.5 C 749.616,396.088 749.949,398.088 748.5,400.5C 747.5,400.167 746.833,399.5 746.5,398.5C 747.246,397.264 747.579,395.93 747.5,394.5 Z"/></g>
<g><path style="opacity:0.876" fill="#dcdede" d="M 942.5,383.5 C 947.268,383.517 951.934,384.184 956.5,385.5C 962.004,391.33 961.67,396.83 955.5,402C 951.833,402.333 948.167,402.667 944.5,403C 943.212,405.466 943.212,407.966 944.5,410.5C 942.675,413.495 940.175,414.162 937,412.5C 936.333,403.5 936.333,394.5 937,385.5C 938.948,384.891 940.782,384.224 942.5,383.5 Z M 944.5,390.5 C 947.916,389.894 950.582,390.894 952.5,393.5C 949.413,397.367 946.413,397.367 943.5,393.5C 944.127,392.583 944.461,391.583 944.5,390.5 Z"/></g>
<g><path style="opacity:0.895" fill="#e1e2e2" d="M 982.5,384.5 C 986.49,383.616 989.323,384.949 991,388.5C 992.398,395.028 994.398,401.361 997,407.5C 997.495,409.473 997.662,411.473 997.5,413.5C 993.273,414.213 990.606,412.546 989.5,408.5C 986.5,407.167 983.5,407.167 980.5,408.5C 979.474,412.684 976.807,414.351 972.5,413.5C 974.237,403.288 977.571,393.621 982.5,384.5 Z M 984.5,395.5 C 986.603,397.018 986.77,398.685 985,400.5C 983.372,399.038 983.205,397.372 984.5,395.5 Z"/></g>
<g><path style="opacity:0.625" fill="#4093aa" d="M 4.5,412.5 C 0.49831,402.494 -0.50169,392.161 1.5,381.5C 2.4959,381.586 3.32924,381.252 4,380.5C 4.97345,378.608 5.64011,376.608 6,374.5C 6.81129,373.04 7.64462,372.707 8.5,373.5C 5.06887,379.707 3.73553,386.374 4.5,393.5C 3.419,401.09 5.08567,407.923 9.5,414C 7.81069,413.866 6.14402,413.366 4.5,412.5 Z"/></g>
<g><path style="opacity:0.681" fill="#c9cecf" d="M 562.5,383.5 C 566.821,383.508 571.154,383.508 575.5,383.5C 577.382,384.093 579.215,384.76 581,385.5C 581.711,387.367 581.211,388.867 579.5,390C 575.167,390.333 570.833,390.667 566.5,391C 564.606,392.079 564.273,393.413 565.5,395C 570.143,395.83 574.81,396.497 579.5,397C 580.86,398.938 580.527,400.604 578.5,402C 574.5,402.333 570.5,402.667 566.5,403C 564.408,403.953 564.075,405.286 565.5,407C 570.5,407.333 575.5,407.667 580.5,408C 582.781,409.851 582.781,411.518 580.5,413C 573.174,413.5 565.841,413.666 558.5,413.5C 558.334,404.161 558.5,394.827 559,385.5C 560.302,384.915 561.469,384.249 562.5,383.5 Z"/></g>
<g><path style="opacity:0.865" fill="#d6d8d9" d="M 603.5,383.5 C 609.971,382.345 615.471,384.011 620,388.5C 620.758,390.769 620.591,392.936 619.5,395C 618.167,395.667 616.833,395.667 615.5,395C 613.016,389.746 609.35,388.579 604.5,391.5C 599.25,396.667 599.25,401.833 604.5,407C 609.801,408.735 613.468,407.068 615.5,402C 621.06,401.279 622.56,403.445 620,408.5C 615.833,413.889 610.333,415.723 603.5,414C 600.375,413.021 597.875,411.187 596,408.5C 594.483,402.92 594.149,397.253 595,391.5C 597.074,387.923 599.907,385.256 603.5,383.5 Z"/></g>
<g><path style="opacity:0.647" fill="#439db6" d="M 209.5,481.5 C 195.315,470.815 189.815,456.481 193,438.5C 197.245,420.589 208.411,409.756 226.5,406C 228.314,403.519 228.98,400.685 228.5,397.5C 230.237,394.992 231.07,391.992 231,388.5C 231.097,377.775 231.763,367.109 233,356.5C 233.537,373.217 232.871,389.884 231,406.5C 230.167,407.333 229.333,408.167 228.5,409C 217.432,410.447 208.599,415.614 202,424.5C 189.777,447.46 193.944,466.627 214.5,482C 212.633,482.711 211.133,482.211 210,480.5C 209.601,480.728 209.435,481.062 209.5,481.5 Z"/></g>
<g><path style="opacity:0.85" fill="#44a1ba" d="M 479.5,439.5 C 461.859,447.807 445.526,445.641 430.5,433C 421.609,424.045 416.942,413.211 416.5,400.5C 417.731,394 419.231,387.667 421,381.5C 416.987,378.97 413.154,376.304 409.5,373.5C 409.586,372.504 409.252,371.671 408.5,371C 404.833,368.667 401.167,366.333 397.5,364C 396.304,363.346 396.304,362.846 397.5,362.5C 405.923,368.261 414.589,373.595 423.5,378.5C 423.833,379.667 424.167,380.833 424.5,382C 422.645,388.063 421.311,394.23 420.5,400.5C 420.836,405.184 421.336,409.851 422,414.5C 425.275,419.1 428.108,423.934 430.5,429C 435.336,432.247 440.336,435.414 445.5,438.5C 453.689,440.533 462.023,441.033 470.5,440C 478.451,437.114 485.284,432.614 491,426.5C 488.978,431.189 485.478,434.689 480.5,437C 479.001,437.838 478.668,438.671 479.5,439.5 Z"/></g>
</svg>
