<?xml version="1.0" encoding="UTF-8"?>
<!DOCTYPE svg PUBLIC "-//W3C//DTD SVG 1.1//EN" "http://www.w3.org/Graphics/SVG/1.1/DTD/svg11.dtd">
<svg xmlns="http://www.w3.org/2000/svg" version="1.1" width="1032px" height="500px" style="shape-rendering:geometricPrecision; text-rendering:geometricPrecision; image-rendering:optimizeQuality; fill-rule:evenodd; clip-rule:evenodd" xmlns:xlink="http://www.w3.org/1999/xlink">
<g><path style="opacity:0.989" fill="#4eb1cc" d="M 366.5,18.5 C 390.159,16.065 406.326,25.7316 415,47.5C 419.953,74.4468 409.453,91.9468 383.5,100C 376.548,100.346 369.715,100.512 363,100.5C 342.376,130.914 321.876,161.414 301.5,192C 330.453,221.596 337.453,255.763 322.5,294.5C 353.087,315.471 384.087,335.971 415.5,356C 416.833,356.667 418.167,356.667 419.5,356C 441.066,345.173 459.566,349.007 475,367.5C 487.257,390.635 483.09,410.135 462.5,426C 441.147,436.86 422.647,433.36 407,415.5C 401.981,407.942 399.481,399.609 399.5,390.5C 399.873,384.039 400.707,377.705 402,371.5C 372.188,351.591 342.188,331.924 312,312.5C 293.669,333.999 270.335,345.666 242,347.5C 240.04,363.254 239.373,378.921 240,394.5C 256.835,402.488 266.002,415.821 267.5,434.5C 265.795,454.12 255.795,467.286 237.5,474C 210.571,478.96 193.071,468.46 185,442.5C 182.364,424.161 188.531,409.661 203.5,399C 208.972,396.846 214.138,394.346 219,391.5C 219.502,378.81 220.336,366.143 221.5,353.5C 221.167,350.5 220.833,347.5 220.5,344.5C 205.153,340.333 191.82,332.833 180.5,322C 178.021,318.353 175.021,315.187 171.5,312.5C 142.559,331.688 113.559,350.688 84.5,369.5C 87.4521,388.143 81.7854,403.643 67.5,416C 49.7758,426.508 32.4424,425.842 15.5,414C 2.68752,400.866 -1.14581,385.366 4,367.5C 15.9673,344.437 34.4673,336.604 59.5,344C 64.2386,346.243 68.572,349.077 72.5,352.5C 102.715,333.9 132.382,314.567 161.5,294.5C 153.856,278.382 151.356,261.382 154,243.5C 156.803,230.056 162.303,217.889 170.5,207C 156.505,191.339 142.172,176.006 127.5,161C 108.919,166.818 92.4194,163.318 78,150.5C 65.5003,133.497 64.5003,115.83 75,97.5C 87.9091,81.9763 104.076,77.143 123.5,83C 145.786,93.7455 153.953,111.245 148,135.5C 146.363,139.402 144.53,143.235 142.5,147C 156.371,161.87 170.538,176.37 185,190.5C 215.705,166.966 248.538,163.632 283.5,180.5C 304.662,150.495 325.662,120.328 346.5,90C 332.101,74.6944 329.601,57.5277 339,38.5C 342.836,33.6318 347.003,29.1318 351.5,25C 356.455,22.5226 361.455,20.356 366.5,18.5 Z M 369.5,38.5 C 388.42,37.6794 396.92,46.6794 395,65.5C 391.53,75.0013 384.696,80.3347 374.5,81.5C 359.126,78.4179 352.292,69.0846 354,53.5C 356.969,46.1217 362.135,41.1217 369.5,38.5 Z M 107.5,100.5 C 124.496,102.123 131.663,111.456 129,128.5C 123.752,140.874 114.586,145.374 101.5,142C 88.2474,134.462 84.7474,123.628 91,109.5C 95.2781,104.012 100.778,101.012 107.5,100.5 Z M 229.5,190.5 C 273.146,187.393 299.979,207.059 310,249.5C 312.028,276.768 302.195,298.602 280.5,315C 251.346,331.694 223.346,330.027 196.5,310C 170.294,282.666 166.461,252.499 185,219.5C 196.355,204.28 211.188,194.613 229.5,190.5 Z M 239.5,236.5 C 253.547,237.213 261.547,244.547 263.5,258.5C 260.22,275.273 250.22,281.773 233.5,278C 225.117,273.578 220.784,266.578 220.5,257C 221.915,245.424 228.248,238.59 239.5,236.5 Z M 41.5,360.5 C 57.1187,362.042 64.6187,370.709 64,386.5C 59.8048,399.349 50.9715,404.849 37.5,403C 23.2639,395.95 19.0972,385.117 25,370.5C 29.0889,364.711 34.5889,361.378 41.5,360.5 Z M 440.5,369.5 C 453.615,370.949 460.615,378.282 461.5,391.5C 460.084,403.947 453.084,410.947 440.5,412.5C 427.578,411.078 420.578,403.912 419.5,391C 420.713,377.956 427.713,370.789 440.5,369.5 Z M 223.5,412.5 C 241.289,414.127 248.789,423.794 246,441.5C 238.997,455.214 228.497,458.714 214.5,452C 200.879,439.232 201.213,426.899 215.5,415C 218.31,414.218 220.977,413.384 223.5,412.5 Z"/></g>
<g><path style="opacity:0.438" fill="#171717" d="M 965.5,247.5 C 964.883,247.389 964.383,247.056 964,246.5C 963,269.167 962,269.167 961,246.5C 960.409,242.118 958.909,238.118 956.5,234.5C 956.709,233.914 957.043,233.414 957.5,233C 941.826,213.288 922.493,208.954 899.5,220C 891.358,227.131 886.192,235.964 884,246.5C 883.425,255.22 883.425,263.886 884,272.5C 882.108,268.331 880.275,264.331 878.5,260.5C 878.549,222.972 897.216,206.472 934.5,211C 953.139,216.112 963.473,228.279 965.5,247.5 Z"/></g>
<g><path style="opacity:0.681" fill="#1a1b1b" d="M 391.5,217.5 C 390.883,217.389 390.383,217.056 390,216.5C 389.667,218.167 389.333,219.833 389,221.5C 387.507,219.338 385.84,217.338 384,215.5C 377.49,216.164 371.157,216.497 365,216.5C 364.667,243.833 364.333,271.167 364,298.5C 362.989,299.337 361.822,299.67 360.5,299.5C 359.493,271.39 359.326,243.057 360,214.5C 360.5,214 361,213.5 361.5,213C 370.688,211.815 380.021,211.815 389.5,213C 391.037,214.11 391.703,215.61 391.5,217.5 Z"/></g>
<g><path style="opacity:0.749" fill="#2f2f2f" d="M 772.5,212.5 C 782.833,212.5 793.167,212.5 803.5,212.5C 806.372,213.325 809.372,214.159 812.5,215C 811.833,215.333 811.167,215.667 810.5,216C 799.505,216.5 788.505,216.667 777.5,216.5C 776.081,215.549 774.415,215.216 772.5,215.5C 772.5,214.5 772.5,213.5 772.5,212.5 Z"/></g>
<g><path style="opacity:0.97" fill="#030303" d="M 965.5,247.5 C 969.491,289.676 950.491,308.51 908.5,304C 888.063,297.028 878.063,282.528 878.5,260.5C 880.275,264.331 882.108,268.331 884,272.5C 883.425,263.886 883.425,255.22 884,246.5C 886.192,235.964 891.358,227.131 899.5,220C 922.493,208.954 941.826,213.288 957.5,233C 957.043,233.414 956.709,233.914 956.5,234.5C 958.909,238.118 960.409,242.118 961,246.5C 962,269.167 963,269.167 964,246.5C 964.383,247.056 964.883,247.389 965.5,247.5 Z M 917.5,229.5 C 932.155,228.403 940.655,235.069 943,249.5C 944.161,258.436 943.161,267.103 940,275.5C 930.45,288.485 919.45,289.819 907,279.5C 899.305,266.237 898.638,252.57 905,238.5C 908.236,234.082 912.402,231.082 917.5,229.5 Z"/></g>
<g><path style="opacity:0.957" fill="#020202" d="M 391.5,217.5 C 394.349,229.894 397.349,242.227 400.5,254.5C 398.019,254.677 396.186,253.677 395,251.5C 394.833,252.167 394.667,252.833 394.5,253.5C 396.929,259.998 398.762,266.665 400,273.5C 401.667,274.167 403.333,274.833 405,275.5C 405,278.167 405,280.833 405,283.5C 405.915,282.672 406.581,281.672 407,280.5C 408.555,274.172 409.555,267.838 410,261.5C 408.956,262.623 408.29,263.956 408,265.5C 407.722,264.584 407.222,263.918 406.5,263.5C 408.645,253.526 410.978,243.526 413.5,233.5C 414.072,235.119 414.405,236.785 414.5,238.5C 412.714,241.404 412.381,244.404 413.5,247.5C 413.833,247.333 414.167,247.167 414.5,247C 417.249,237.264 419.749,227.43 422,217.5C 429.079,216.52 436.245,216.187 443.5,216.5C 443.5,244.167 443.5,271.833 443.5,299.5C 442.022,299.238 440.689,299.571 439.5,300.5C 442.086,301.48 444.753,301.813 447.5,301.5C 447.082,302.222 446.416,302.722 445.5,303C 439.984,303.817 434.65,303.651 429.5,302.5C 430.6,301.442 431.934,300.608 433.5,300C 432.672,276.573 432.172,253.073 432,229.5C 430.847,227.503 429.347,227.17 427.5,228.5C 426.764,230.541 425.931,232.541 425,234.5C 423.822,241.924 422.322,249.258 420.5,256.5C 420.833,257.167 421.167,257.833 421.5,258.5C 422.622,257.37 423.956,256.703 425.5,256.5C 422.641,271.272 419.141,285.939 415,300.5C 414.167,301.333 413.333,302.167 412.5,303C 405.797,303.713 399.13,303.546 392.5,302.5C 391.094,296.933 390.094,291.267 389.5,285.5C 390.75,285.577 391.583,286.244 392,287.5C 392.991,286.57 393.491,285.404 393.5,284C 391.11,274.607 389.277,265.107 388,255.5C 385.282,246.666 382.949,237.666 381,228.5C 379.644,227.62 378.144,227.286 376.5,227.5C 376.691,252.231 376.357,275.397 375.5,297C 376.253,298.487 377.086,298.654 378,297.5C 378.333,293.833 378.667,290.167 379,286.5C 379.333,287.833 379.667,289.167 380,290.5C 380.232,289.263 380.732,288.263 381.5,287.5C 381.777,292.233 381.443,296.9 380.5,301.5C 377.547,303.001 374.381,303.668 371,303.5C 367.477,303.293 363.977,302.96 360.5,302.5C 360.5,301.5 360.5,300.5 360.5,299.5C 361.822,299.67 362.989,299.337 364,298.5C 364.333,271.167 364.667,243.833 365,216.5C 371.157,216.497 377.49,216.164 384,215.5C 385.84,217.338 387.507,219.338 389,221.5C 389.333,219.833 389.667,218.167 390,216.5C 390.383,217.056 390.883,217.389 391.5,217.5 Z"/></g>
<g><path style="opacity:0.965" fill="#000000" d="M 484.5,300.5 C 483.942,301.79 482.942,302.623 481.5,303C 475.13,303.706 468.797,303.539 462.5,302.5C 462.5,286.5 462.5,270.5 462.5,254.5C 463.27,269.346 464.103,284.346 465,299.5C 465.333,299.167 465.667,298.833 466,298.5C 466.5,271.169 466.667,243.835 466.5,216.5C 470.833,216.5 475.167,216.5 479.5,216.5C 479.5,244.167 479.5,271.833 479.5,299.5C 477.396,299.201 475.396,299.534 473.5,300.5C 474.333,300.833 475.167,301.167 476,301.5C 478.792,300.784 481.626,300.451 484.5,300.5 Z"/></g>
<g><path style="opacity:0.922" fill="#010101" d="M 535.5,244.5 C 537.456,250.312 539.123,256.312 540.5,262.5C 539.022,262.238 537.689,262.571 536.5,263.5C 537.303,266.503 537.303,269.67 536.5,273C 538.548,276.417 539.714,279.917 540,283.5C 541.667,284.833 543.333,284.833 545,283.5C 550.161,261.194 554.994,238.86 559.5,216.5C 567.295,215.421 574.961,215.421 582.5,216.5C 581.854,244.376 581.187,272.209 580.5,300C 582.55,301.332 584.55,301.498 586.5,300.5C 584.987,302.241 582.987,303.241 580.5,303.5C 576.992,302.212 573.492,302.212 570,303.5C 568.019,303.101 566.519,302.101 565.5,300.5C 566.496,300.414 567.329,300.748 568,301.5C 568.667,300.833 569.333,300.167 570,299.5C 570.667,276.5 570.667,253.5 570,230.5C 568.83,227.33 566.997,226.83 564.5,229C 566.885,229.055 568.219,230.222 568.5,232.5C 567.949,236.992 567.282,241.326 566.5,245.5C 565.493,245.452 565.16,246.452 565.5,248.5C 561.869,266.418 557.535,284.252 552.5,302C 545.526,303.961 538.526,303.961 531.5,302C 529.776,296.271 528.443,290.437 527.5,284.5C 528.583,284.539 529.583,284.873 530.5,285.5C 530.833,284.667 531.167,283.833 531.5,283C 528.076,265.473 524.576,247.973 521,230.5C 519.584,227.805 517.584,227.139 515,228.5C 515.658,248.215 515.491,267.715 514.5,287C 515.288,290.076 515.788,293.242 516,296.5C 516.167,274.492 516.667,252.492 517.5,230.5C 518.805,233.914 519.805,237.414 520.5,241C 519.913,243.643 519.913,246.143 520.5,248.5C 519.668,265.662 519.168,282.995 519,300.5C 516.251,303.041 512.918,304.041 509,303.5C 505.431,303.714 502.098,303.047 499,301.5C 498.5,273.502 498.333,245.502 498.5,217.5C 499.222,217.918 499.722,218.584 500,219.5C 500.5,246.498 500.667,273.498 500.5,300.5C 501.552,300.649 502.552,300.483 503.5,300C 502.505,272.241 502.172,244.407 502.5,216.5C 508.264,216.481 514.098,216.148 520,215.5C 521.399,216.227 522.899,216.727 524.5,217C 527.312,226.344 529.478,235.844 531,245.5C 531.419,246.672 532.085,247.672 533,248.5C 533.48,246.867 534.313,245.534 535.5,244.5 Z"/></g>
<g><path style="opacity:0.959" fill="#030303" d="M 612.5,212.5 C 612.423,213.75 611.756,214.583 610.5,215C 611.5,215.333 612.5,215.667 613.5,216C 626.198,216.435 638.864,216.769 651.5,217C 648.833,216.333 648.833,215.667 651.5,215C 649.347,214.901 647.681,214.067 646.5,212.5C 662.391,215.729 670.391,225.562 670.5,242C 669.483,260.863 659.483,270.863 640.5,272C 634.175,272.5 627.842,272.666 621.5,272.5C 622.527,282.144 622.693,291.811 622,301.5C 618.362,303.014 614.529,303.68 610.5,303.5C 607.833,303.333 605.167,303.167 602.5,303C 601.333,302.5 600.5,301.667 600,300.5C 599.333,272.167 599.333,243.833 600,215.5C 600.374,214.584 600.874,213.75 601.5,213C 605.152,212.501 608.818,212.335 612.5,212.5 Z M 628.5,230.5 C 633.177,230.835 637.844,231.335 642.5,232C 648.485,236.128 649.985,241.628 647,248.5C 645.238,251.268 642.738,252.768 639.5,253C 633.78,253.788 628.114,253.621 622.5,252.5C 621.503,245.532 621.17,238.532 621.5,231.5C 624.059,231.802 626.393,231.468 628.5,230.5 Z"/></g>
<g><path style="opacity:0.963" fill="#262626" d="M 612.5,212.5 C 623.833,212.5 635.167,212.5 646.5,212.5C 647.681,214.067 649.347,214.901 651.5,215C 648.833,215.667 648.833,216.333 651.5,217C 638.864,216.769 626.198,216.435 613.5,216C 612.5,215.667 611.5,215.333 610.5,215C 611.756,214.583 612.423,213.75 612.5,212.5 Z"/></g>
<g><path style="opacity:0.9" fill="#040404" d="M 738.5,212.5 C 742.007,211.994 745.174,212.66 748,214.5C 748.667,218.833 748.667,223.167 748,227.5C 747.751,228.624 747.251,229.624 746.5,230.5C 731.548,231.484 716.548,231.817 701.5,231.5C 701.197,236.43 701.531,241.263 702.5,246C 715.5,246.333 728.5,246.667 741.5,247C 742.667,247.5 743.5,248.333 744,249.5C 744.667,253.833 744.667,258.167 744,262.5C 743.228,263.849 742.061,264.682 740.5,265C 727.504,265.5 714.504,265.667 701.5,265.5C 701.045,272.014 701.545,278.347 703,284.5C 718.287,283.241 733.787,283.241 749.5,284.5C 750.833,290.5 750.833,296.5 749.5,302.5C 729.595,302.192 709.595,302.525 689.5,303.5C 686.094,303.704 682.928,303.038 680,301.5C 679.5,274.502 679.333,247.502 679.5,220.5C 680.29,219.391 680.79,218.058 681,216.5C 681.333,218.167 681.667,219.833 682,221.5C 682.824,246.876 682.657,272.209 681.5,297.5C 682.325,298.386 683.325,298.719 684.5,298.5C 684.5,271.167 684.5,243.833 684.5,216.5C 702.19,216.442 719.856,216.442 737.5,216.5C 738.429,215.311 738.762,213.978 738.5,212.5 Z"/></g>
<g><path style="opacity:0.88" fill="#030303" d="M 803.5,212.5 C 824.777,211.279 835.61,221.279 836,242.5C 835.035,249.769 831.535,255.436 825.5,259.5C 828.277,262.102 830.444,265.102 832,268.5C 832.957,276.809 833.624,285.142 834,293.5C 836.164,295.811 837.164,298.478 837,301.5C 836.25,302.126 835.416,302.626 834.5,303C 827.392,303.924 820.392,303.591 813.5,302C 812.352,292.121 810.852,282.287 809,272.5C 808.097,271.299 806.931,270.465 805.5,270C 797.841,269.5 790.174,269.334 782.5,269.5C 782.667,280.172 782.5,290.839 782,301.5C 780.562,302.718 778.895,303.385 777,303.5C 773,302.167 769,302.167 765,303.5C 761.858,303.025 760.025,301.192 759.5,298C 760.103,270.415 760.437,242.915 760.5,215.5C 762.413,243.417 763.08,271.417 762.5,299.5C 763.5,299.5 764.5,299.5 765.5,299.5C 765.5,271.833 765.5,244.167 765.5,216.5C 769.5,216.5 773.5,216.5 777.5,216.5C 788.505,216.667 799.505,216.5 810.5,216C 811.167,215.667 811.833,215.333 812.5,215C 809.372,214.159 806.372,213.325 803.5,212.5 Z M 783.5,230.5 C 791.88,230.262 800.213,230.762 808.5,232C 813.62,236.091 814.787,241.258 812,247.5C 810.352,248.717 808.519,249.55 806.5,250C 798.507,250.5 790.507,250.666 782.5,250.5C 782.768,244.618 782.434,238.785 781.5,233C 782.056,231.989 782.722,231.156 783.5,230.5 Z"/></g>
<g><path style="opacity:0.959" fill="#000000" d="M 867.5,301.5 C 867.389,302.117 867.056,302.617 866.5,303C 861.167,303.667 855.833,303.667 850.5,303C 848.563,302.878 847.23,302.045 846.5,300.5C 848.288,300.785 849.955,300.452 851.5,299.5C 851.817,272.438 851.483,245.271 850.5,218C 854.635,216.569 858.968,216.069 863.5,216.5C 864.153,244.559 863.487,272.393 861.5,300C 863.586,300.315 865.586,300.815 867.5,301.5 Z"/></g>
<g><path style="opacity:0.762" fill="#0f0f0f" d="M 867.5,301.5 C 865.586,300.815 863.586,300.315 861.5,300C 863.487,272.393 864.153,244.559 863.5,216.5C 858.968,216.069 854.635,216.569 850.5,218C 851.483,245.271 851.817,272.438 851.5,299.5C 849.955,300.452 848.288,300.785 846.5,300.5C 846.333,271.498 846.5,242.498 847,213.5C 854,212.167 861,212.167 868,213.5C 868.83,243.003 868.664,272.336 867.5,301.5 Z"/></g>
<g><path style="opacity:0.87" fill="#171717" d="M 484.5,300.5 C 481.626,300.451 478.792,300.784 476,301.5C 475.167,301.167 474.333,300.833 473.5,300.5C 475.396,299.534 477.396,299.201 479.5,299.5C 479.5,271.833 479.5,244.167 479.5,216.5C 475.167,216.5 470.833,216.5 466.5,216.5C 466.667,243.835 466.5,271.169 466,298.5C 465.667,298.833 465.333,299.167 465,299.5C 464.103,284.346 463.27,269.346 462.5,254.5C 462.814,241.783 462.481,229.117 461.5,216.5C 462,215.5 462.5,214.5 463,213.5C 469.795,211.546 476.629,211.379 483.5,213C 484.126,213.75 484.626,214.584 485,215.5C 484.511,243.901 484.344,272.235 484.5,300.5 Z"/></g>
<g><path style="opacity:0.989" fill="#4bafcb" d="M 238.5,216.5 C 258.512,216.575 272.678,225.575 281,243.5C 287.292,267.646 279.459,285.479 257.5,297C 232.608,304.272 214.442,296.438 203,273.5C 196.128,242.54 207.961,223.54 238.5,216.5 Z M 239.5,236.5 C 228.248,238.59 221.915,245.424 220.5,257C 220.784,266.578 225.117,273.578 233.5,278C 250.22,281.773 260.22,275.273 263.5,258.5C 261.547,244.547 253.547,237.213 239.5,236.5 Z"/></g>
<g><path style="opacity:0.627" fill="#181818" d="M 586.5,300.5 C 584.55,301.498 582.55,301.332 580.5,300C 581.187,272.209 581.854,244.376 582.5,216.5C 574.961,215.421 567.295,215.421 559.5,216.5C 554.994,238.86 550.161,261.194 545,283.5C 543.333,284.833 541.667,284.833 540,283.5C 539.714,279.917 538.548,276.417 536.5,273C 537.303,269.67 537.303,266.503 536.5,263.5C 537.689,262.571 539.022,262.238 540.5,262.5C 540.884,266.586 541.717,270.586 543,274.5C 547.129,254.372 551.462,234.372 556,214.5C 556.5,214 557,213.5 557.5,213C 566.833,212.333 576.167,212.333 585.5,213C 586.495,242.093 586.829,271.26 586.5,300.5 Z"/></g>
<g><path style="opacity:0.943" fill="#1e1e1e" d="M 738.5,212.5 C 738.762,213.978 738.429,215.311 737.5,216.5C 719.856,216.442 702.19,216.442 684.5,216.5C 684.5,243.833 684.5,271.167 684.5,298.5C 683.325,298.719 682.325,298.386 681.5,297.5C 682.657,272.209 682.824,246.876 682,221.5C 681.667,219.833 681.333,218.167 681,216.5C 680.79,218.058 680.29,219.391 679.5,220.5C 679.055,217.635 679.722,215.135 681.5,213C 700.497,212.5 719.497,212.333 738.5,212.5 Z"/></g>
<g><path style="opacity:0.802" fill="#131313" d="M 535.5,244.5 C 534.313,245.534 533.48,246.867 533,248.5C 532.085,247.672 531.419,246.672 531,245.5C 529.478,235.844 527.312,226.344 524.5,217C 522.899,216.727 521.399,216.227 520,215.5C 514.098,216.148 508.264,216.481 502.5,216.5C 502.172,244.407 502.505,272.241 503.5,300C 502.552,300.483 501.552,300.649 500.5,300.5C 500.667,273.498 500.5,246.498 500,219.5C 499.722,218.584 499.222,217.918 498.5,217.5C 498.286,215.856 498.62,214.356 499.5,213C 508.833,212.333 518.167,212.333 527.5,213C 528.701,213.903 529.535,215.069 530,216.5C 531.646,225.896 533.479,235.229 535.5,244.5 Z"/></g>
<g><path style="opacity:0.172" fill="#151515" d="M 447.5,301.5 C 444.753,301.813 442.086,301.48 439.5,300.5C 440.689,299.571 442.022,299.238 443.5,299.5C 443.5,271.833 443.5,244.167 443.5,216.5C 436.245,216.187 429.079,216.52 422,217.5C 419.749,227.43 417.249,237.264 414.5,247C 414.167,247.167 413.833,247.333 413.5,247.5C 412.381,244.404 412.714,241.404 414.5,238.5C 414.405,236.785 414.072,235.119 413.5,233.5C 414.368,226.453 416.034,219.62 418.5,213C 424.829,212.445 431.162,211.945 437.5,211.5C 441.2,211.343 444.7,212.009 448,213.5C 448.638,214.609 449.138,215.775 449.5,217C 448.174,244.042 448.174,271.042 449.5,298C 448.695,299.113 448.028,300.279 447.5,301.5 Z"/></g>
<g><path style="opacity:0.527" fill="#161717" d="M 389.5,285.5 C 386.705,274.604 384.205,263.604 382,252.5C 381.5,264.162 381.333,275.829 381.5,287.5C 380.732,288.263 380.232,289.263 380,290.5C 379.667,289.167 379.333,287.833 379,286.5C 378.667,290.167 378.333,293.833 378,297.5C 377.086,298.654 376.253,298.487 375.5,297C 376.357,275.397 376.691,252.231 376.5,227.5C 378.144,227.286 379.644,227.62 381,228.5C 382.949,237.666 385.282,246.666 388,255.5C 389.277,265.107 391.11,274.607 393.5,284C 393.491,285.404 392.991,286.57 392,287.5C 391.583,286.244 390.75,285.577 389.5,285.5 Z"/></g>
<g><path style="opacity:0.694" fill="#151515" d="M 772.5,212.5 C 772.5,213.5 772.5,214.5 772.5,215.5C 774.415,215.216 776.081,215.549 777.5,216.5C 773.5,216.5 769.5,216.5 765.5,216.5C 765.5,244.167 765.5,271.833 765.5,299.5C 764.5,299.5 763.5,299.5 762.5,299.5C 763.08,271.417 762.413,243.417 760.5,215.5C 760.804,214.85 761.137,214.183 761.5,213.5C 765.107,212.511 768.774,212.177 772.5,212.5 Z"/></g>
<g><path style="opacity:0.354" fill="#151515" d="M 429.5,302.5 C 428.504,302.586 427.671,302.252 427,301.5C 426.86,284.466 426.36,269.466 425.5,256.5C 423.956,256.703 422.622,257.37 421.5,258.5C 421.167,257.833 420.833,257.167 420.5,256.5C 422.322,249.258 423.822,241.924 425,234.5C 425.931,232.541 426.764,230.541 427.5,228.5C 429.347,227.17 430.847,227.503 432,229.5C 432.172,253.073 432.672,276.573 433.5,300C 431.934,300.608 430.6,301.442 429.5,302.5 Z"/></g>
<g><path style="opacity:0.819" fill="#151414" d="M 527.5,284.5 C 524.671,272.685 522.337,260.685 520.5,248.5C 519.913,246.143 519.913,243.643 520.5,241C 519.805,237.414 518.805,233.914 517.5,230.5C 516.667,252.492 516.167,274.492 516,296.5C 515.788,293.242 515.288,290.076 514.5,287C 515.491,267.715 515.658,248.215 515,228.5C 517.584,227.139 519.584,227.805 521,230.5C 524.576,247.973 528.076,265.473 531.5,283C 531.167,283.833 530.833,284.667 530.5,285.5C 529.583,284.873 528.583,284.539 527.5,284.5 Z"/></g>
<g><path style="opacity:0.685" fill="#141414" d="M 565.5,300.5 C 565.5,283.167 565.5,265.833 565.5,248.5C 566.404,247.791 566.737,246.791 566.5,245.5C 567.282,241.326 567.949,236.992 568.5,232.5C 568.219,230.222 566.885,229.055 564.5,229C 566.997,226.83 568.83,227.33 570,230.5C 570.667,253.5 570.667,276.5 570,299.5C 569.333,300.167 568.667,300.833 568,301.5C 567.329,300.748 566.496,300.414 565.5,300.5 Z"/></g>
<g><path style="opacity:0.983" fill="#1d1d1d" d="M 400.5,254.5 C 401.619,260.545 402.952,266.545 404.5,272.5C 405.353,269.522 406.019,266.522 406.5,263.5C 407.222,263.918 407.722,264.584 408,265.5C 408.29,263.956 408.956,262.623 410,261.5C 409.555,267.838 408.555,274.172 407,280.5C 406.581,281.672 405.915,282.672 405,283.5C 405,280.833 405,278.167 405,275.5C 403.333,274.833 401.667,274.167 400,273.5C 398.762,266.665 396.929,259.998 394.5,253.5C 394.667,252.833 394.833,252.167 395,251.5C 396.186,253.677 398.019,254.677 400.5,254.5 Z"/></g>
<g><path style="opacity:0.516" fill="#141515" d="M 866.5,386.5 C 863.343,386.563 860.509,387.563 858,389.5C 857.167,388.5 856.333,387.5 855.5,386.5C 854.583,387.127 853.583,387.461 852.5,387.5C 851.326,383.272 851.326,378.606 852.5,373.5C 854.144,373.714 855.644,373.38 857,372.5C 858.399,373.227 859.899,373.727 861.5,374C 863.462,378.054 865.129,382.221 866.5,386.5 Z"/></g>
<g><path style="opacity:0.527" fill="#292b2b" d="M 918.5,379.5 C 914.797,379.71 911.13,380.043 907.5,380.5C 906.5,380.5 905.5,380.5 904.5,380.5C 903.942,379.21 902.942,378.377 901.5,378C 899.19,377.503 896.857,377.337 894.5,377.5C 894.572,375.689 895.405,374.356 897,373.5C 903.636,372.012 910.136,372.512 916.5,375C 917.267,376.47 917.933,377.97 918.5,379.5 Z"/></g>
<g><path style="opacity:0.261" fill="#303030" d="M 1020.5,380.5 C 1015.21,376.509 1009.87,376.509 1004.5,380.5C 999.222,378.128 999.222,375.628 1004.5,373C 1011.86,372.317 1019.19,372.483 1026.5,373.5C 1027.91,378.931 1025.91,381.265 1020.5,380.5 Z"/></g>
<g><path style="opacity:0.83" fill="#334348" d="M 500.5,372.5 C 507.379,372.222 514.212,372.555 521,373.5C 523.997,375.478 524.164,377.645 521.5,380C 519.19,380.497 516.857,380.663 514.5,380.5C 514.666,387.175 514.5,393.842 514,400.5C 512.455,403.293 510.288,403.96 507.5,402.5C 506.503,395.197 506.169,387.863 506.5,380.5C 503.315,380.98 500.481,380.314 498,378.5C 497.034,375.66 497.867,373.66 500.5,372.5 Z"/></g>
<g><path style="opacity:0.767" fill="#313c3f" d="M 541.5,380.5 C 541.586,379.504 541.252,378.671 540.5,378C 538.455,377.51 536.455,377.677 534.5,378.5C 534.5,376.833 534.5,375.167 534.5,373.5C 539.75,372.877 544.916,372.544 550,372.5C 552.135,373.127 554.302,373.627 556.5,374C 557.935,376.267 557.602,378.267 555.5,380C 550.845,380.499 546.179,380.666 541.5,380.5 Z"/></g>
<g><path style="opacity:0.787" fill="#2d3132" d="M 688.5,376.5 C 687.458,377.791 686.292,377.791 685,376.5C 684.517,377.448 684.351,378.448 684.5,379.5C 682.821,379.285 681.821,379.952 681.5,381.5C 679.565,380.85 677.565,380.517 675.5,380.5C 675.423,379.25 674.756,378.417 673.5,378C 670.639,377.8 667.972,377.633 665.5,377.5C 665.33,376.178 665.663,375.011 666.5,374C 672.819,372.053 679.152,372.053 685.5,374C 686.571,374.852 687.571,375.685 688.5,376.5 Z"/></g>
<g><path style="opacity:0.739" fill="#2e3030" d="M 754.5,380.5 C 752.497,378.018 749.831,377.018 746.5,377.5C 746.5,378.5 746.5,379.5 746.5,380.5C 743.813,380.664 741.146,380.497 738.5,380C 737.018,377.408 737.352,375.075 739.5,373C 746.5,372.333 753.5,372.333 760.5,373C 764.037,374.826 764.371,377.16 761.5,380C 759.19,380.497 756.857,380.663 754.5,380.5 Z"/></g>
<g><path style="opacity:0.64" fill="#1f2121" d="M 784.5,372.5 C 786.484,372.383 788.15,373.05 789.5,374.5C 792.731,382.69 796.064,390.857 799.5,399C 797.272,404.376 794.106,404.876 790,400.5C 788.991,398.975 788.491,397.308 788.5,395.5C 783.003,394.655 779.67,396.988 778.5,402.5C 774.624,404.446 772.291,403.28 771.5,399C 774.896,390.911 778.063,382.744 781,374.5C 782.302,373.915 783.469,373.249 784.5,372.5 Z M 784.5,385.5 C 785.267,386.172 785.934,387.005 786.5,388C 784.939,388.188 784.272,387.355 784.5,385.5 Z"/></g>
<g><path style="opacity:0.608" fill="#293437" d="M 578.5,381.5 C 578.33,380.178 578.663,379.011 579.5,378C 578.234,377.691 577.067,377.191 576,376.5C 573.948,378.058 571.781,379.392 569.5,380.5C 573.304,373.274 579.304,370.774 587.5,373C 591.734,374.399 594.4,377.232 595.5,381.5C 594.514,385.147 592.181,386.314 588.5,385C 586.184,380.775 582.851,379.608 578.5,381.5 Z"/></g>
<g><path style="opacity:0.252" fill="#181919" d="M 882.5,383.5 C 881.596,384.209 881.263,385.209 881.5,386.5C 879.61,386.703 878.11,386.037 877,384.5C 876.51,385.793 876.343,387.127 876.5,388.5C 875.167,388.5 873.833,388.5 872.5,388.5C 872.785,386.712 872.452,385.045 871.5,383.5C 870.476,384.853 869.143,385.52 867.5,385.5C 868.444,381.611 869.944,377.945 872,374.5C 880.297,371.275 883.797,374.275 882.5,383.5 Z"/></g>
<g><path style="opacity:0.497" fill="#222323" d="M 974.5,372.5 C 980.932,371.347 986.432,373.014 991,377.5C 991.769,380.099 991.602,382.599 990.5,385C 986.515,386.334 983.848,385.001 982.5,381C 974.011,380.501 971.178,384.334 974,392.5C 976.448,395.545 979.281,396.045 982.5,394C 983.453,392.045 984.787,390.378 986.5,389C 991.152,388.658 992.986,390.824 992,395.5C 987.711,403.115 981.211,405.615 972.5,403C 967.024,399.62 964.357,394.62 964.5,388C 964.511,380.433 967.844,375.266 974.5,372.5 Z"/></g>
<g><path style="opacity:0.155" fill="#172124" d="M 541.5,380.5 C 541.5,381.5 541.5,382.5 541.5,383.5C 541.316,386.477 541.316,389.144 541.5,391.5C 541.5,392.5 541.5,393.5 541.5,394.5C 542.007,395.859 543.007,396.859 544.5,397.5C 541.594,400.472 538.26,401.139 534.5,399.5C 534.436,392.808 534.436,385.808 534.5,378.5C 536.455,377.677 538.455,377.51 540.5,378C 541.252,378.671 541.586,379.504 541.5,380.5 Z"/></g>
<g><path style="opacity:0.785" fill="#161919" d="M 754.5,380.5 C 754.666,387.508 754.5,394.508 754,401.5C 752.135,403.673 749.969,404.007 747.5,402.5C 746.503,395.197 746.169,387.863 746.5,380.5C 746.5,379.5 746.5,378.5 746.5,377.5C 749.831,377.018 752.497,378.018 754.5,380.5 Z"/></g>
<g><path style="opacity:0.63" fill="#171d1f" d="M 578.5,381.5 C 574.639,386.744 575.306,391.411 580.5,395.5C 578.688,395.771 577.022,396.438 575.5,397.5C 576.025,398.192 576.692,398.692 577.5,399C 575.618,399.198 573.952,399.698 572.5,400.5C 570.864,399.251 569.697,397.584 569,395.5C 568.184,390.316 568.35,385.316 569.5,380.5C 571.781,379.392 573.948,378.058 576,376.5C 577.067,377.191 578.234,377.691 579.5,378C 578.663,379.011 578.33,380.178 578.5,381.5 Z"/></g>
<g><path style="opacity:0.544" fill="#323f42" d="M 541.5,383.5 C 546.068,383.207 550.735,383.54 555.5,384.5C 556.952,387.788 555.952,390.288 552.5,392C 548.921,391.663 545.254,391.496 541.5,391.5C 541.316,389.144 541.316,386.477 541.5,383.5 Z"/></g>
<g><path style="opacity:0.617" fill="#202627" d="M 610.5,372.5 C 612.408,372.883 613.908,373.883 615,375.5C 615.497,378.146 615.664,380.813 615.5,383.5C 618.167,383.5 620.833,383.5 623.5,383.5C 623.335,380.482 623.502,377.482 624,374.5C 626.423,372.006 628.756,372.006 631,374.5C 631.832,383.851 631.665,393.184 630.5,402.5C 628.031,404.007 625.865,403.673 624,401.5C 623.825,397.789 623.325,394.122 622.5,390.5C 619.916,391.393 617.249,391.726 614.5,391.5C 615.418,395.212 615.418,398.878 614.5,402.5C 611.745,404.125 609.245,403.792 607,401.5C 606.333,392.833 606.333,384.167 607,375.5C 607.985,374.186 609.152,373.186 610.5,372.5 Z"/></g>
<g><path style="opacity:0.72" fill="#1c1d1d" d="M 1020.5,380.5 C 1019.08,380.75 1018.08,381.583 1017.5,383C 1018.73,389.456 1018.73,395.956 1017.5,402.5C 1016.18,402.33 1015.01,402.663 1014,403.5C 1012.79,402.929 1011.63,402.262 1010.5,401.5C 1009.47,394.845 1009.3,388.178 1010,381.5C 1008.3,380.594 1006.47,380.261 1004.5,380.5C 1009.87,376.509 1015.21,376.509 1020.5,380.5 Z"/></g>
<g><path style="opacity:0.515" fill="#222525" d="M 715.5,372.5 C 718.675,372.84 720.841,374.507 722,377.5C 723.933,384.7 726.433,391.7 729.5,398.5C 728.366,403.234 725.699,404.401 721.5,402C 720.792,399.411 719.459,397.245 717.5,395.5C 716.28,396.711 715.113,396.711 714,395.5C 712.045,397.911 710.211,400.411 708.5,403C 703.41,403.829 701.576,401.662 703,396.5C 706.123,389.677 708.789,382.677 711,375.5C 712.409,374.219 713.909,373.219 715.5,372.5 Z"/></g>
<g><path style="opacity:0.48" fill="#171819" d="M 940.5,372.5 C 942.991,372.829 945.157,373.829 947,375.5C 949.534,383.602 952.368,391.602 955.5,399.5C 953.362,403.102 950.362,404.102 946.5,402.5C 946.891,396.213 944.224,394.213 938.5,396.5C 937.594,398.386 936.594,400.22 935.5,402C 933.19,402.497 930.857,402.663 928.5,402.5C 930.12,393.224 932.954,384.224 937,375.5C 938.145,374.364 939.312,373.364 940.5,372.5 Z M 940.5,385.5 C 942.332,386.14 942.665,387.14 941.5,388.5C 940.614,387.675 940.281,386.675 940.5,385.5 Z"/></g>
<g><path style="opacity:0.197" fill="#303131" d="M 882.5,383.5 C 882.666,388.844 882.499,394.177 882,399.5C 880.287,403.571 877.454,404.571 873.5,402.5C 873.664,399.813 873.497,397.146 873,394.5C 872.958,402.163 869.625,404.497 863,401.5C 862,398.5 861,395.5 860,392.5C 860.613,395.856 860.446,399.19 859.5,402.5C 857.167,403.833 854.833,403.833 852.5,402.5C 852.5,397.5 852.5,392.5 852.5,387.5C 853.583,387.461 854.583,387.127 855.5,386.5C 856.333,387.5 857.167,388.5 858,389.5C 860.509,387.563 863.343,386.563 866.5,386.5C 867.11,388.85 867.444,388.517 867.5,385.5C 869.143,385.52 870.476,384.853 871.5,383.5C 872.452,385.045 872.785,386.712 872.5,388.5C 873.833,388.5 875.167,388.5 876.5,388.5C 876.343,387.127 876.51,385.793 877,384.5C 878.11,386.037 879.61,386.703 881.5,386.5C 881.263,385.209 881.596,384.209 882.5,383.5 Z"/></g>
<g><path style="opacity:0.637" fill="#1a1c1d" d="M 894.5,377.5 C 896.857,377.337 899.19,377.503 901.5,378C 902.942,378.377 903.942,379.21 904.5,380.5C 902.775,380.843 902.275,381.843 903,383.5C 905.545,384.797 908.045,384.631 910.5,383C 909.627,381.955 908.627,381.122 907.5,380.5C 911.13,380.043 914.797,379.71 918.5,379.5C 918.423,389.909 913.089,394.242 902.5,392.5C 902.82,395.898 902.487,399.232 901.5,402.5C 899.249,403.865 897.249,403.531 895.5,401.5C 894.531,393.556 894.198,385.556 894.5,377.5 Z M 904.5,380.5 C 905.5,380.5 906.5,380.5 907.5,380.5C 908.627,381.122 909.627,381.955 910.5,383C 908.045,384.631 905.545,384.797 903,383.5C 902.275,381.843 902.775,380.843 904.5,380.5 Z"/></g>
<g><path style="opacity:0.426" fill="#1f2021" d="M 833.5,372.5 C 835.582,372.472 837.416,373.139 839,374.5C 839.667,383.167 839.667,391.833 839,400.5C 837.285,402.907 835.118,403.574 832.5,402.5C 832.167,397.667 831.833,392.833 831.5,388C 831.553,382.587 832.22,377.42 833.5,372.5 Z"/></g>
<g><path style="opacity:0.676" fill="#2a3234" d="M 572.5,400.5 C 573.952,399.698 575.618,399.198 577.5,399C 576.692,398.692 576.025,398.192 575.5,397.5C 577.022,396.438 578.688,395.771 580.5,395.5C 582.308,395.509 583.975,395.009 585.5,394C 586.969,390.164 589.636,388.497 593.5,389C 596.308,394.429 594.975,398.763 589.5,402C 585.289,403.534 580.956,403.867 576.5,403C 574.867,402.52 573.534,401.687 572.5,400.5 Z"/></g>
<g><path style="opacity:0.949" fill="#1e2122" d="M 688.5,376.5 C 693.217,383.035 693.717,390.035 690,397.5C 686.637,402.514 681.971,404.514 676,403.5C 673.5,403.333 671,403.167 668.5,403C 667.333,402.5 666.5,401.667 666,400.5C 665.5,392.841 665.334,385.174 665.5,377.5C 667.972,377.633 670.639,377.8 673.5,378C 674.756,378.417 675.423,379.25 675.5,380.5C 674.352,384.981 674.185,389.648 675,394.5C 680.73,395.962 683.897,393.628 684.5,387.5C 683.871,385.259 682.871,383.259 681.5,381.5C 681.821,379.952 682.821,379.285 684.5,379.5C 684.351,378.448 684.517,377.448 685,376.5C 686.292,377.791 687.458,377.791 688.5,376.5 Z M 675.5,380.5 C 677.565,380.517 679.565,380.85 681.5,381.5C 682.871,383.259 683.871,385.259 684.5,387.5C 683.897,393.628 680.73,395.962 675,394.5C 674.185,389.648 674.352,384.981 675.5,380.5 Z"/></g>
<g><path style="opacity:0.265" fill="#314144" d="M 541.5,394.5 C 546.084,395.277 550.75,395.777 555.5,396C 557.576,397.884 557.91,400.051 556.5,402.5C 549.884,403.628 543.218,403.795 536.5,403C 535.027,402.29 534.36,401.124 534.5,399.5C 538.26,401.139 541.594,400.472 544.5,397.5C 543.007,396.859 542.007,395.859 541.5,394.5 Z"/></g>
</svg>
