<?xml version="1.0" encoding="UTF-8"?>
<svg xmlns="http://www.w3.org/2000/svg" xmlns:xlink="http://www.w3.org/1999/xlink" width="668px" height="668px" viewBox="0 0 668 668" version="1.1">
<defs>
<filter id="alpha" filterUnits="objectBoundingBox" x="0%" y="0%" width="100%" height="100%">
  <feColorMatrix type="matrix" in="SourceGraphic" values="0 0 0 0 1 0 0 0 0 1 0 0 0 0 1 0 0 0 1 0"/>
</filter>
<mask id="mask0">
  <g filter="url(#alpha)">
<rect x="0" y="0" width="668" height="668" style="fill:rgb(0%,0%,0%);fill-opacity:0.976471;stroke:none;"/>
  </g>
</mask>
<clipPath id="clip1">
  <rect x="0" y="0" width="668" height="668"/>
</clipPath>
<g id="surface5" clip-path="url(#clip1)">
<path style=" stroke:none;fill-rule:evenodd;fill:rgb(31.764707%,68.627453%,78.431374%);fill-opacity:1;" d="M 124.914062 254.507812 C 121.914062 253.230469 118.796875 252.339844 115.5625 251.835938 C 116.496094 255.167969 117.832031 258.285156 119.570312 261.1875 C 112.269531 254.554688 105.144531 247.65625 98.195312 240.480469 C 80.609375 244.171875 70.367188 237.269531 67.46875 219.773438 C 70.933594 201.160156 81.621094 195.148438 99.53125 201.734375 C 109.71875 210.578125 111.5 220.820312 104.875 232.464844 C 112.324219 239.238281 119.003906 246.585938 124.914062 254.507812 Z M 83.5 209.085938 C 95.070312 207.519531 100.191406 212.417969 98.863281 223.78125 C 93.21875 232.941406 86.539062 233.832031 78.824219 226.453125 C 75.671875 219.398438 77.230469 213.609375 83.5 209.085938 Z M 83.5 209.085938 "/>
</g>
<mask id="mask1">
  <g filter="url(#alpha)">
<rect x="0" y="0" width="668" height="668" style="fill:rgb(0%,0%,0%);fill-opacity:0.854902;stroke:none;"/>
  </g>
</mask>
<clipPath id="clip2">
  <rect x="0" y="0" width="668" height="668"/>
</clipPath>
<g id="surface8" clip-path="url(#clip2)">
<path style=" stroke:none;fill-rule:evenodd;fill:rgb(98.823529%,98.823529%,98.823529%);fill-opacity:1;" d="M 537.738281 255.84375 C 558.519531 256.371094 567.648438 267.058594 565.128906 287.90625 C 560.660156 303.898438 550.191406 309.910156 533.730469 305.945312 C 523.40625 301.339844 518.0625 293.324219 517.699219 281.894531 C 518.828125 268.566406 525.507812 259.882812 537.738281 255.84375 Z M 539.074219 262.523438 C 548.640625 262.285156 554.652344 266.742188 557.113281 275.882812 C 559.828125 294.839844 552.035156 302.1875 533.730469 297.929688 C 524.625 288.878906 523.511719 278.859375 530.390625 267.867188 C 533.082031 265.53125 535.976562 263.75 539.074219 262.523438 Z M 539.074219 262.523438 "/>
</g>
<mask id="mask2">
  <g filter="url(#alpha)">
<rect x="0" y="0" width="668" height="668" style="fill:rgb(0%,0%,0%);fill-opacity:0.835294;stroke:none;"/>
  </g>
</mask>
<clipPath id="clip3">
  <rect x="0" y="0" width="668" height="668"/>
</clipPath>
<g id="surface11" clip-path="url(#clip3)">
<path style=" stroke:none;fill-rule:evenodd;fill:rgb(98.823529%,98.823529%,98.823529%);fill-opacity:1;" d="M 242.484375 257.179688 C 246.152344 256.761719 249.71875 257.207031 253.171875 258.515625 C 257.535156 270.933594 261.765625 283.40625 265.863281 295.925781 C 269.960938 283.40625 274.195312 270.933594 278.554688 258.515625 C 282.011719 257.207031 285.574219 256.761719 289.242188 257.179688 C 289.242188 273.210938 289.242188 289.242188 289.242188 305.277344 C 286.570312 305.277344 283.898438 305.277344 281.226562 305.277344 C 281.449219 294.132812 281.226562 283 280.558594 271.875 C 277.074219 282.996094 273.734375 294.128906 270.539062 305.277344 C 267.421875 305.277344 264.304688 305.277344 261.1875 305.277344 C 258.261719 294.492188 254.921875 283.800781 251.167969 273.210938 C 250.5 283.890625 250.277344 294.578125 250.5 305.277344 C 247.828125 305.277344 245.15625 305.277344 242.484375 305.277344 C 242.484375 289.242188 242.484375 273.210938 242.484375 257.179688 Z M 242.484375 257.179688 "/>
</g>
<mask id="mask3">
  <g filter="url(#alpha)">
<rect x="0" y="0" width="668" height="668" style="fill:rgb(0%,0%,0%);fill-opacity:0.835294;stroke:none;"/>
  </g>
</mask>
<clipPath id="clip4">
  <rect x="0" y="0" width="668" height="668"/>
</clipPath>
<g id="surface14" clip-path="url(#clip4)">
<path style=" stroke:none;fill-rule:evenodd;fill:rgb(98.823529%,99.215686%,99.215686%);fill-opacity:1;" d="M 298.597656 257.179688 C 301.269531 257.179688 303.941406 257.179688 306.613281 257.179688 C 306.613281 273.210938 306.613281 289.242188 306.613281 305.277344 C 303.941406 305.277344 301.269531 305.277344 298.597656 305.277344 C 298.597656 289.242188 298.597656 273.210938 298.597656 257.179688 Z M 298.597656 257.179688 "/>
</g>
<mask id="mask4">
  <g filter="url(#alpha)">
<rect x="0" y="0" width="668" height="668" style="fill:rgb(0%,0%,0%);fill-opacity:0.905882;stroke:none;"/>
  </g>
</mask>
<clipPath id="clip5">
  <rect x="0" y="0" width="668" height="668"/>
</clipPath>
<g id="surface17" clip-path="url(#clip5)">
<path style=" stroke:none;fill-rule:evenodd;fill:rgb(98.823529%,98.823529%,98.823529%);fill-opacity:1;" d="M 315.964844 257.179688 C 319.464844 256.820312 322.804688 257.265625 325.984375 258.515625 C 329.824219 270.703125 334.054688 282.726562 338.675781 294.589844 C 343.296875 282.726562 347.527344 270.703125 351.367188 258.515625 C 354.550781 257.265625 357.890625 256.820312 361.386719 257.179688 C 361.386719 273.210938 361.386719 289.242188 361.386719 305.277344 C 359.160156 305.277344 356.933594 305.277344 354.707031 305.277344 C 354.929688 293.6875 354.707031 282.109375 354.039062 270.539062 C 350.476562 281.226562 346.914062 291.914062 343.351562 302.605469 C 340.234375 306.167969 337.117188 306.167969 334 302.605469 C 330.4375 291.914062 326.875 281.226562 323.3125 270.539062 C 322.644531 282.109375 322.421875 293.6875 322.644531 305.277344 C 320.417969 305.277344 318.191406 305.277344 315.964844 305.277344 C 315.964844 289.242188 315.964844 273.210938 315.964844 257.179688 Z M 315.964844 257.179688 "/>
</g>
<mask id="mask5">
  <g filter="url(#alpha)">
<rect x="0" y="0" width="668" height="668" style="fill:rgb(0%,0%,0%);fill-opacity:0.87451;stroke:none;"/>
  </g>
</mask>
<clipPath id="clip6">
  <rect x="0" y="0" width="668" height="668"/>
</clipPath>
<g id="surface20" clip-path="url(#clip6)">
<path style=" stroke:none;fill-rule:evenodd;fill:rgb(99.215686%,99.215686%,99.215686%);fill-opacity:1;" d="M 372.074219 257.179688 C 381.992188 256.65625 391.789062 257.324219 401.46875 259.183594 C 409.855469 266.710938 410.300781 274.726562 402.804688 283.230469 C 395.421875 286.402344 387.851562 287.070312 380.09375 285.234375 C 378.765625 291.855469 378.320312 298.539062 378.757812 305.277344 C 376.527344 305.277344 374.304688 305.277344 372.074219 305.277344 C 372.074219 289.242188 372.074219 273.210938 372.074219 257.179688 Z M 378.757812 263.859375 C 385.164062 263.355469 391.398438 264.023438 397.460938 265.863281 C 400.785156 269.375 401.007812 273.160156 398.128906 277.21875 C 391.894531 278.109375 385.660156 279 379.425781 279.890625 C 378.757812 274.566406 378.535156 269.222656 378.757812 263.859375 Z M 378.757812 263.859375 "/>
</g>
<mask id="mask6">
  <g filter="url(#alpha)">
<rect x="0" y="0" width="668" height="668" style="fill:rgb(0%,0%,0%);fill-opacity:0.898039;stroke:none;"/>
  </g>
</mask>
<clipPath id="clip7">
  <rect x="0" y="0" width="668" height="668"/>
</clipPath>
<g id="surface23" clip-path="url(#clip7)">
<path style=" stroke:none;fill-rule:evenodd;fill:rgb(99.215686%,99.215686%,99.215686%);fill-opacity:1;" d="M 414.828125 257.179688 C 426.40625 257.179688 437.984375 257.179688 449.5625 257.179688 C 449.5625 259.40625 449.5625 261.632812 449.5625 263.859375 C 440.210938 263.859375 430.859375 263.859375 421.507812 263.859375 C 421.507812 268.3125 421.507812 272.765625 421.507812 277.21875 C 430.414062 277.21875 439.320312 277.21875 448.226562 277.21875 C 448.226562 279.445312 448.226562 281.671875 448.226562 283.898438 C 439.320312 283.898438 430.414062 283.898438 421.507812 283.898438 C 421.507812 288.800781 421.507812 293.695312 421.507812 298.597656 C 431.304688 298.597656 441.101562 298.597656 450.898438 298.597656 C 450.898438 300.824219 450.898438 303.050781 450.898438 305.277344 C 438.875 305.277344 426.851562 305.277344 414.828125 305.277344 C 414.828125 289.242188 414.828125 273.210938 414.828125 257.179688 Z M 414.828125 257.179688 "/>
</g>
<mask id="mask7">
  <g filter="url(#alpha)">
<rect x="0" y="0" width="668" height="668" style="fill:rgb(0%,0%,0%);fill-opacity:0.890196;stroke:none;"/>
  </g>
</mask>
<clipPath id="clip8">
  <rect x="0" y="0" width="668" height="668"/>
</clipPath>
<g id="surface26" clip-path="url(#clip8)">
<path style=" stroke:none;fill-rule:evenodd;fill:rgb(99.215686%,99.215686%,99.215686%);fill-opacity:1;" d="M 457.578125 257.179688 C 468.363281 256.695312 479.050781 257.363281 489.644531 259.183594 C 494.808594 264.074219 496.371094 270.085938 494.320312 277.21875 C 493.652344 279.667969 492.09375 281.226562 489.644531 281.894531 C 490.867188 282.394531 491.980469 283.0625 492.984375 283.898438 C 494.515625 290.023438 495.402344 296.257812 495.65625 302.605469 C 496.324219 303.273438 496.992188 303.941406 497.660156 304.609375 C 494.574219 305.273438 491.457031 305.492188 488.308594 305.277344 C 487.613281 299.449219 486.722656 293.660156 485.636719 287.90625 C 484.464844 286.90625 483.128906 286.238281 481.628906 285.902344 C 475.855469 285.238281 470.066406 285.015625 464.261719 285.234375 C 464.261719 291.914062 464.261719 298.597656 464.261719 305.277344 C 462.03125 305.277344 459.808594 305.277344 457.578125 305.277344 C 457.578125 289.242188 457.578125 273.210938 457.578125 257.179688 Z M 464.261719 263.859375 C 470.511719 263.636719 476.746094 263.863281 482.964844 264.527344 C 489.414062 268.316406 489.863281 272.773438 484.300781 277.886719 C 477.632812 278.554688 470.953125 278.777344 464.261719 278.554688 C 464.261719 273.65625 464.261719 268.757812 464.261719 263.859375 Z M 464.261719 263.859375 "/>
</g>
<mask id="mask8">
  <g filter="url(#alpha)">
<rect x="0" y="0" width="668" height="668" style="fill:rgb(0%,0%,0%);fill-opacity:0.792157;stroke:none;"/>
  </g>
</mask>
<clipPath id="clip9">
  <rect x="0" y="0" width="668" height="668"/>
</clipPath>
<g id="surface29" clip-path="url(#clip9)">
<path style=" stroke:none;fill-rule:evenodd;fill:rgb(99.215686%,99.215686%,99.215686%);fill-opacity:1;" d="M 504.339844 257.179688 C 507.011719 257.179688 509.683594 257.179688 512.355469 257.179688 C 512.355469 273.210938 512.355469 289.242188 512.355469 305.277344 C 509.683594 305.277344 507.011719 305.277344 504.339844 305.277344 C 504.339844 289.242188 504.339844 273.210938 504.339844 257.179688 Z M 504.339844 257.179688 "/>
</g>
<mask id="mask9">
  <g filter="url(#alpha)">
<rect x="0" y="0" width="668" height="668" style="fill:rgb(0%,0%,0%);fill-opacity:0.992157;stroke:none;"/>
  </g>
</mask>
<clipPath id="clip10">
  <rect x="0" y="0" width="668" height="668"/>
</clipPath>
<g id="surface32" clip-path="url(#clip10)">
<path style=" stroke:none;fill-rule:evenodd;fill:rgb(32.549021%,69.411767%,78.823531%);fill-opacity:1;" d="M 151.636719 269.203125 C 171.789062 269.089844 180.027344 278.886719 176.351562 298.597656 C 167.421875 311.636719 156.066406 314.085938 142.285156 305.945312 C 131.363281 289.964844 134.480469 277.71875 151.636719 269.203125 Z M 154.308594 278.554688 C 164.332031 279.4375 168.5625 284.78125 167 294.589844 C 162.976562 301.316406 157.40625 302.875 150.300781 299.265625 C 143.34375 290.925781 144.679688 284.027344 154.308594 278.554688 Z M 154.308594 278.554688 "/>
</g>
<mask id="mask10">
  <g filter="url(#alpha)">
<rect x="0" y="0" width="668" height="668" style="fill:rgb(0%,0%,0%);fill-opacity:0.654902;stroke:none;"/>
  </g>
</mask>
<clipPath id="clip11">
  <rect x="0" y="0" width="668" height="668"/>
</clipPath>
<g id="surface35" clip-path="url(#clip11)">
<path style=" stroke:none;fill-rule:evenodd;fill:rgb(97.647059%,98.431373%,98.039216%);fill-opacity:1;" d="M 384.101562 352.035156 C 393.910156 352.734375 396.582031 357.410156 392.117188 366.0625 C 388.582031 366.726562 385.019531 366.949219 381.429688 366.730469 C 380.808594 361.386719 381.699219 356.484375 384.101562 352.035156 Z M 385.4375 356.042969 C 387.21875 356.042969 389 356.042969 390.78125 356.042969 C 390.78125 358.714844 390.78125 361.386719 390.78125 364.058594 C 389 364.058594 387.21875 364.058594 385.4375 364.058594 C 385.4375 361.386719 385.4375 358.714844 385.4375 356.042969 Z M 385.4375 356.042969 "/>
</g>
<mask id="mask11">
  <g filter="url(#alpha)">
<rect x="0" y="0" width="668" height="668" style="fill:rgb(0%,0%,0%);fill-opacity:0.623529;stroke:none;"/>
  </g>
</mask>
<clipPath id="clip12">
  <rect x="0" y="0" width="668" height="668"/>
</clipPath>
<g id="surface38" clip-path="url(#clip12)">
<path style=" stroke:none;fill-rule:evenodd;fill:rgb(98.039216%,98.039216%,98.039216%);fill-opacity:1;" d="M 420.171875 352.035156 C 423.296875 353.554688 426.414062 353.777344 429.523438 352.703125 C 431.003906 355.125 430.113281 356.238281 426.851562 356.042969 C 425.960938 370.296875 425.070312 370.296875 424.179688 356.042969 C 420.082031 356.550781 418.746094 355.214844 420.171875 352.035156 Z M 420.171875 352.035156 "/>
</g>
<mask id="mask12">
  <g filter="url(#alpha)">
<rect x="0" y="0" width="668" height="668" style="fill:rgb(0%,0%,0%);fill-opacity:0.54902;stroke:none;"/>
  </g>
</mask>
<clipPath id="clip13">
  <rect x="0" y="0" width="668" height="668"/>
</clipPath>
<g id="surface41" clip-path="url(#clip13)">
<path style=" stroke:none;fill-rule:evenodd;fill:rgb(98.431373%,98.431373%,98.431373%);fill-opacity:1;" d="M 405.476562 353.371094 C 406.8125 353.371094 408.148438 353.371094 409.484375 353.371094 C 410.417969 357.476562 411.753906 361.484375 413.492188 365.394531 C 412.824219 365.839844 412.15625 366.289062 411.488281 366.730469 C 410.027344 365.667969 408.46875 364.777344 406.8125 364.058594 C 404.742188 365.707031 402.515625 366.375 400.132812 366.0625 C 402.105469 361.894531 403.886719 357.664062 405.476562 353.371094 Z M 405.476562 353.371094 "/>
</g>
<mask id="mask13">
  <g filter="url(#alpha)">
<rect x="0" y="0" width="668" height="668" style="fill:rgb(0%,0%,0%);fill-opacity:0.772549;stroke:none;"/>
  </g>
</mask>
<clipPath id="clip14">
  <rect x="0" y="0" width="668" height="668"/>
</clipPath>
<g id="surface44" clip-path="url(#clip14)">
<path style=" stroke:none;fill-rule:evenodd;fill:rgb(98.823529%,98.823529%,98.823529%);fill-opacity:1;" d="M 466.933594 353.371094 C 468.636719 354.96875 469.527344 357.191406 469.605469 360.050781 C 469.160156 362.277344 468.710938 364.503906 468.269531 366.730469 C 466.949219 362.367188 466.503906 357.910156 466.933594 353.371094 Z M 466.933594 353.371094 "/>
</g>
<mask id="mask14">
  <g filter="url(#alpha)">
<rect x="0" y="0" width="668" height="668" style="fill:rgb(0%,0%,0%);fill-opacity:0.603922;stroke:none;"/>
  </g>
</mask>
<clipPath id="clip15">
  <rect x="0" y="0" width="668" height="668"/>
</clipPath>
<g id="surface47" clip-path="url(#clip15)">
<path style=" stroke:none;fill-rule:evenodd;fill:rgb(97.254902%,97.647059%,97.647059%);fill-opacity:1;" d="M 477.621094 353.371094 C 482.144531 353.871094 484.597656 356.542969 484.96875 361.386719 C 486.457031 359.382812 487.570312 357.15625 488.308594 354.707031 C 489.410156 353.523438 490.746094 353.078125 492.316406 353.371094 C 492.742188 357.910156 492.296875 362.367188 490.980469 366.730469 C 489.914062 364.625 489.246094 362.398438 488.976562 360.050781 C 488.769531 364.09375 486.765625 366.320312 482.964844 366.730469 C 482.519531 361.386719 482.074219 361.386719 481.628906 366.730469 C 480.292969 366.730469 478.957031 366.730469 477.621094 366.730469 C 477.621094 362.277344 477.621094 357.824219 477.621094 353.371094 Z M 477.621094 353.371094 "/>
</g>
<mask id="mask15">
  <g filter="url(#alpha)">
<rect x="0" y="0" width="668" height="668" style="fill:rgb(0%,0%,0%);fill-opacity:0.631373;stroke:none;"/>
  </g>
</mask>
<clipPath id="clip16">
  <rect x="0" y="0" width="668" height="668"/>
</clipPath>
<g id="surface50" clip-path="url(#clip16)">
<path style=" stroke:none;fill-rule:evenodd;fill:rgb(98.039216%,98.039216%,98.039216%);fill-opacity:1;" d="M 521.707031 353.371094 C 523.472656 353.144531 525.035156 353.589844 526.382812 354.707031 C 528.417969 358.703125 529.085938 362.710938 528.386719 366.730469 C 525.316406 363.375 522.199219 363.375 519.035156 366.730469 C 518.589844 366.289062 518.144531 365.839844 517.699219 365.394531 C 519.308594 361.453125 520.644531 357.445312 521.707031 353.371094 Z M 521.707031 353.371094 "/>
</g>
<mask id="mask16">
  <g filter="url(#alpha)">
<rect x="0" y="0" width="668" height="668" style="fill:rgb(0%,0%,0%);fill-opacity:0.717647;stroke:none;"/>
  </g>
</mask>
<clipPath id="clip17">
  <rect x="0" y="0" width="668" height="668"/>
</clipPath>
<g id="surface53" clip-path="url(#clip17)">
<path style=" stroke:none;fill-rule:evenodd;fill:rgb(93.725491%,94.509804%,94.117647%);fill-opacity:1;" d="M 501.667969 352.035156 C 508.929688 351.339844 511.601562 354.234375 509.683594 360.71875 C 507.5 361.378906 505.273438 361.601562 503.003906 361.386719 C 503.355469 363.363281 502.910156 365.144531 501.667969 366.730469 C 499.988281 361.777344 499.988281 356.875 501.667969 352.035156 Z M 503.003906 356.042969 C 504.980469 355.695312 506.757812 356.140625 508.347656 357.378906 C 507.457031 357.824219 506.566406 358.269531 505.675781 358.714844 C 504.054688 358.386719 503.164062 357.496094 503.003906 356.042969 Z M 503.003906 356.042969 "/>
</g>
<mask id="mask17">
  <g filter="url(#alpha)">
<rect x="0" y="0" width="668" height="668" style="fill:rgb(0%,0%,0%);fill-opacity:0.682353;stroke:none;"/>
  </g>
</mask>
<clipPath id="clip18">
  <rect x="0" y="0" width="668" height="668"/>
</clipPath>
<g id="surface56" clip-path="url(#clip18)">
<path style=" stroke:none;fill-rule:evenodd;fill:rgb(92.941177%,94.509804%,93.725491%);fill-opacity:1;" d="M 314.628906 352.035156 C 317.46875 352.503906 320.585938 352.503906 323.980469 352.035156 C 323.980469 353.371094 323.980469 354.707031 323.980469 356.042969 C 313.429688 356.558594 313.429688 357.894531 323.980469 360.050781 C 313.292969 361.832031 313.292969 363.613281 323.980469 365.394531 C 320.523438 366.707031 316.960938 367.148438 313.292969 366.730469 C 312.949219 361.695312 313.394531 356.796875 314.628906 352.035156 Z M 314.628906 352.035156 "/>
</g>
<mask id="mask18">
  <g filter="url(#alpha)">
<rect x="0" y="0" width="668" height="668" style="fill:rgb(0%,0%,0%);fill-opacity:0.67451;stroke:none;"/>
  </g>
</mask>
<clipPath id="clip19">
  <rect x="0" y="0" width="668" height="668"/>
</clipPath>
<g id="surface59" clip-path="url(#clip19)">
<path style=" stroke:none;fill-rule:evenodd;fill:rgb(96.470588%,97.254902%,97.254902%);fill-opacity:1;" d="M 540.410156 352.035156 C 544.628906 351.472656 547.746094 353.03125 549.765625 356.710938 C 547.269531 357.660156 545.265625 356.992188 543.753906 354.707031 C 540.941406 357.117188 539.828125 360.234375 540.410156 364.058594 C 543.519531 364.398438 546.191406 363.507812 548.429688 361.386719 C 549.457031 365.308594 547.675781 367.535156 543.085938 368.066406 C 538.796875 366.867188 536.566406 363.972656 536.402344 359.382812 C 536.890625 356.457031 538.226562 354.003906 540.410156 352.035156 Z M 540.410156 352.035156 "/>
</g>
<mask id="mask19">
  <g filter="url(#alpha)">
<rect x="0" y="0" width="668" height="668" style="fill:rgb(0%,0%,0%);fill-opacity:0.996078;stroke:none;"/>
  </g>
</mask>
<clipPath id="clip20">
  <rect x="0" y="0" width="668" height="668"/>
</clipPath>
<g id="surface62" clip-path="url(#clip20)">
<path style=" stroke:none;fill-rule:evenodd;fill:rgb(94.509804%,96.862745%,96.470588%);fill-opacity:1;" d="M 294.589844 352.035156 C 297.769531 353.265625 300.886719 353.265625 303.941406 352.035156 C 307.667969 354.484375 307.222656 355.820312 302.605469 356.042969 C 302.605469 359.605469 302.605469 363.167969 302.605469 366.730469 C 301.269531 366.730469 299.933594 366.730469 298.597656 366.730469 C 298.597656 363.167969 298.597656 359.605469 298.597656 356.042969 C 297.261719 356.042969 295.925781 356.042969 294.589844 356.042969 C 294.589844 354.707031 294.589844 353.371094 294.589844 352.035156 Z M 294.589844 352.035156 "/>
</g>
<mask id="mask20">
  <g filter="url(#alpha)">
<rect x="0" y="0" width="668" height="668" style="fill:rgb(0%,0%,0%);fill-opacity:0.803922;stroke:none;"/>
  </g>
</mask>
<clipPath id="clip21">
  <rect x="0" y="0" width="668" height="668"/>
</clipPath>
<g id="surface65" clip-path="url(#clip21)">
<path style=" stroke:none;fill-rule:evenodd;fill:rgb(96.470588%,98.039216%,97.647059%);fill-opacity:1;" d="M 336.003906 352.035156 C 339.6875 351.871094 342.359375 353.433594 344.019531 356.710938 C 341.527344 357.660156 339.523438 356.992188 338.007812 354.707031 C 333.554688 358.269531 333.554688 361.832031 338.007812 365.394531 C 343.316406 359.828125 344.429688 360.273438 341.347656 366.730469 C 335.171875 369.050781 331.605469 366.824219 330.660156 360.050781 C 331.148438 356.371094 332.929688 353.699219 336.003906 352.035156 Z M 336.003906 352.035156 "/>
</g>
<mask id="mask21">
  <g filter="url(#alpha)">
<rect x="0" y="0" width="668" height="668" style="fill:rgb(0%,0%,0%);fill-opacity:0.72549;stroke:none;"/>
  </g>
</mask>
<clipPath id="clip22">
  <rect x="0" y="0" width="668" height="668"/>
</clipPath>
<g id="surface68" clip-path="url(#clip22)">
<path style=" stroke:none;fill-rule:evenodd;fill:rgb(95.294118%,96.078432%,95.686275%);fill-opacity:1;" d="M 350.699219 353.371094 C 352.035156 353.371094 353.371094 353.371094 354.707031 353.371094 C 354.707031 355.152344 354.707031 356.933594 354.707031 358.714844 C 356.488281 358.714844 358.269531 358.714844 360.050781 358.714844 C 359.703125 356.742188 360.148438 354.960938 361.386719 353.371094 C 363.167969 357.824219 363.167969 362.277344 361.386719 366.730469 C 360.148438 365.144531 359.703125 363.363281 360.050781 361.386719 C 358.269531 361.386719 356.488281 361.386719 354.707031 361.386719 C 354.707031 363.167969 354.707031 364.949219 354.707031 366.730469 C 353.371094 366.730469 352.035156 366.730469 350.699219 366.730469 C 350.699219 362.277344 350.699219 357.824219 350.699219 353.371094 Z M 350.699219 353.371094 "/>
</g>
<mask id="mask22">
  <g filter="url(#alpha)">
<rect x="0" y="0" width="668" height="668" style="fill:rgb(0%,0%,0%);fill-opacity:0.6;stroke:none;"/>
  </g>
</mask>
<clipPath id="clip23">
  <rect x="0" y="0" width="668" height="668"/>
</clipPath>
<g id="surface71" clip-path="url(#clip23)">
<path style=" stroke:none;fill-rule:evenodd;fill:rgb(98.039216%,98.039216%,98.039216%);fill-opacity:1;" d="M 441.546875 353.371094 C 442.882812 353.371094 444.21875 353.371094 445.554688 353.371094 C 446.082031 357.628906 447.417969 361.636719 449.5625 365.394531 C 448.894531 365.839844 448.226562 366.289062 447.558594 366.730469 C 446.101562 365.667969 444.542969 364.777344 442.882812 364.058594 C 440.8125 365.707031 438.585938 366.375 436.203125 366.0625 C 438.175781 361.894531 439.960938 357.664062 441.546875 353.371094 Z M 441.546875 353.371094 "/>
</g>
<mask id="mask23">
  <g filter="url(#alpha)">
<rect x="0" y="0" width="668" height="668" style="fill:rgb(0%,0%,0%);fill-opacity:0.760784;stroke:none;"/>
  </g>
</mask>
<clipPath id="clip24">
  <rect x="0" y="0" width="668" height="668"/>
</clipPath>
<g id="surface74" clip-path="url(#clip24)">
<path style=" stroke:none;fill-rule:evenodd;fill:rgb(95.294118%,95.686275%,95.686275%);fill-opacity:1;" d="M 557.78125 352.035156 C 561.429688 352.21875 564.992188 352.886719 568.46875 354.039062 C 567.046875 355.628906 565.265625 356.296875 563.125 356.042969 C 562.234375 370.296875 561.34375 370.296875 560.453125 356.042969 C 555.441406 356.039062 554.550781 354.703125 557.78125 352.035156 Z M 557.78125 352.035156 "/>
</g>
</defs>
<g id="surface1">
<path style=" stroke:none;fill-rule:evenodd;fill:rgb(31.764707%,69.01961%,78.823531%);fill-opacity:1;" d="M 194.386719 245.15625 C 189.804688 245.5 185.347656 246.390625 181.027344 247.828125 C 190.304688 233.417969 199.882812 219.167969 209.753906 205.074219 C 210.644531 203.738281 210.644531 202.402344 209.753906 201.066406 C 207.425781 199.445312 206.089844 197.21875 205.742188 194.386719 C 202.804688 175.078125 211.046875 165.949219 230.460938 167 C 242.957031 171.277344 248.078125 179.960938 245.824219 193.050781 C 241.511719 204.667969 233.273438 209.566406 221.109375 207.746094 C 211.691406 219.839844 202.785156 232.308594 194.386719 245.15625 Z M 219.773438 177.019531 C 229.285156 174.863281 235.074219 178.425781 237.140625 187.707031 C 235.070312 197.210938 229.28125 200.550781 219.773438 197.726562 C 212.71875 190.828125 212.71875 183.925781 219.773438 177.019531 Z M 219.773438 177.019531 "/>
<use xlink:href="#surface5" mask="url(#mask0)"/>
<path style=" stroke:none;fill-rule:evenodd;fill:rgb(31.764707%,68.627453%,78.823531%);fill-opacity:1;" d="M 181.027344 247.828125 C 185.347656 246.390625 189.804688 245.5 194.386719 245.15625 C 192.332031 248.59375 190.105469 251.933594 187.707031 255.175781 C 196.816406 265.167969 201.71875 276.96875 202.402344 290.578125 C 202.394531 293.078125 201.949219 295.304688 201.066406 297.261719 C 202.902344 287.992188 199.339844 282.203125 190.378906 279.890625 C 183.273438 260.742188 169.46875 252.503906 148.964844 255.175781 C 127.152344 262.945312 118.242188 278.308594 122.242188 301.269531 C 122.460938 303.976562 122.238281 306.648438 121.574219 309.285156 C 119.445312 305.691406 116.550781 303.019531 112.890625 301.269531 C 111.5625 294.636719 111.339844 287.957031 112.222656 281.226562 C 114.699219 274.503906 117.148438 267.824219 119.570312 261.1875 C 117.832031 258.285156 116.496094 255.167969 115.5625 251.835938 C 118.796875 252.339844 121.914062 253.230469 124.914062 254.507812 C 128.921875 254.914062 132.484375 253.355469 135.605469 249.832031 C 149.957031 243.453125 164.207031 243.675781 178.355469 250.5 C 179.265625 249.507812 180.160156 248.617188 181.027344 247.828125 Z M 181.027344 247.828125 "/>
<use xlink:href="#surface8" mask="url(#mask1)"/>
<use xlink:href="#surface11" mask="url(#mask2)"/>
<use xlink:href="#surface14" mask="url(#mask3)"/>
<use xlink:href="#surface17" mask="url(#mask4)"/>
<use xlink:href="#surface20" mask="url(#mask5)"/>
<use xlink:href="#surface23" mask="url(#mask6)"/>
<use xlink:href="#surface26" mask="url(#mask7)"/>
<use xlink:href="#surface29" mask="url(#mask8)"/>
<use xlink:href="#surface32" mask="url(#mask9)"/>
<path style=" stroke:none;fill-rule:evenodd;fill:rgb(31.764707%,69.01961%,79.215688%);fill-opacity:1;" d="M 190.378906 279.890625 C 199.339844 282.203125 202.902344 287.992188 201.066406 297.261719 C 200.871094 301.191406 199.980469 304.976562 198.394531 308.617188 C 213.992188 320.867188 230.46875 331.777344 247.828125 341.347656 C 247.84375 344.082031 248.289062 346.753906 249.164062 349.363281 C 247.097656 352.613281 245.761719 356.175781 245.15625 360.050781 C 246.359375 363.488281 248.140625 366.605469 250.5 369.402344 C 252.449219 371.117188 254.230469 371.117188 255.84375 369.402344 C 256.734375 369.847656 257.625 370.296875 258.515625 370.738281 C 258.222656 372.390625 257.328125 373.726562 255.84375 374.746094 C 257.652344 376.117188 258.542969 377.898438 258.515625 380.09375 C 249.207031 379.03125 242.75 374.128906 239.144531 365.394531 C 238.902344 359.484375 238.679688 353.695312 238.476562 348.027344 C 224.351562 338.976562 210.546875 329.625 197.058594 319.972656 C 194.882812 316.402344 191.765625 313.730469 187.707031 311.957031 C 184.175781 315.652344 182.839844 320.105469 183.699219 325.316406 C 179.777344 326.136719 175.992188 327.472656 172.34375 329.324219 C 167.246094 328.246094 162.125 327.355469 156.980469 326.652344 C 178.210938 324.128906 190.234375 312.101562 193.050781 290.578125 C 192.324219 286.921875 191.433594 283.359375 190.378906 279.890625 Z M 190.378906 279.890625 "/>
<path style=" stroke:none;fill-rule:evenodd;fill:rgb(32.156864%,69.01961%,78.823531%);fill-opacity:1;" d="M 112.890625 301.269531 C 116.550781 303.019531 119.445312 305.691406 121.574219 309.285156 C 122.238281 306.648438 122.460938 303.976562 122.242188 301.269531 C 127.226562 312.929688 135.6875 320.945312 147.628906 325.316406 C 143.375 327.050781 138.921875 328.386719 134.269531 329.324219 C 129.414062 326.03125 124.738281 322.46875 120.238281 318.636719 C 106.746094 326.605469 93.609375 335.066406 80.828125 344.019531 C 81.839844 340.210938 81.839844 336.648438 80.828125 333.332031 C 90.519531 325.796875 100.765625 318.894531 111.554688 312.625 C 113.140625 311.261719 114.476562 309.703125 115.5625 307.949219 C 114.285156 305.84375 113.394531 303.617188 112.890625 301.269531 Z M 112.890625 301.269531 "/>
<path style=" stroke:none;fill-rule:evenodd;fill:rgb(31.764707%,69.411767%,79.607844%);fill-opacity:1;" d="M 80.828125 333.332031 C 81.839844 336.648438 81.839844 340.210938 80.828125 344.019531 C 78.171875 344.90625 75.945312 346.464844 74.148438 348.695312 C 76.257812 368.40625 67.351562 376.867188 47.429688 374.078125 C 33.683594 366.523438 30.34375 355.613281 37.40625 341.347656 C 47.773438 331.25 58.460938 330.808594 69.472656 340.011719 C 73 337.25 76.785156 335.023438 80.828125 333.332031 Z M 51.4375 342.683594 C 62.886719 343.339844 67.117188 349.132812 64.128906 360.050781 C 60.652344 365.011719 55.976562 366.570312 50.101562 364.726562 C 43.996094 361.332031 41.992188 356.210938 44.089844 349.363281 C 46.398438 346.824219 48.847656 344.597656 51.4375 342.683594 Z M 51.4375 342.683594 "/>
<path style=" stroke:none;fill-rule:evenodd;fill:rgb(31.764707%,69.411767%,78.039217%);fill-opacity:1;" d="M 197.058594 319.972656 C 195.613281 319.917969 194.277344 319.472656 193.050781 318.636719 C 183.058594 328.753906 171.035156 334.988281 156.980469 337.339844 C 155.476562 345.285156 155.257812 353.300781 156.3125 361.386719 C 158.46875 362.570312 160.472656 363.90625 162.324219 365.394531 C 162.363281 366.726562 161.695312 367.617188 160.320312 368.066406 C 157.601562 366.433594 154.707031 365.097656 151.636719 364.058594 C 154.351562 361.253906 154.800781 358.140625 152.972656 354.707031 C 152.046875 355.410156 151.378906 356.300781 150.96875 357.378906 C 149.4375 355.796875 147.878906 355.796875 146.292969 357.378906 C 146.515625 349.796875 146.289062 342.226562 145.625 334.667969 C 141.554688 333.25 137.769531 331.46875 134.269531 329.324219 C 138.921875 328.386719 143.375 327.050781 147.628906 325.316406 C 150.902344 325.046875 154.019531 325.492188 156.980469 326.652344 C 162.125 327.355469 167.246094 328.246094 172.34375 329.324219 C 175.992188 327.472656 179.777344 326.136719 183.699219 325.316406 C 182.839844 320.105469 184.175781 315.652344 187.707031 311.957031 C 191.765625 313.730469 194.882812 316.402344 197.058594 319.972656 Z M 197.058594 319.972656 "/>
<path style=" stroke:none;fill-rule:evenodd;fill:rgb(31.764707%,68.627453%,78.431374%);fill-opacity:1;" d="M 258.515625 380.09375 C 258.542969 377.898438 257.652344 376.117188 255.84375 374.746094 C 257.328125 373.726562 258.222656 372.390625 258.515625 370.738281 C 270.730469 367.46875 273.402344 360.566406 266.53125 350.03125 C 254.636719 345.894531 248.621094 350.125 248.496094 362.722656 C 249.933594 366.167969 252.382812 368.398438 255.84375 369.402344 C 254.230469 371.117188 252.449219 371.117188 250.5 369.402344 C 248.140625 366.605469 246.359375 363.488281 245.15625 360.050781 C 245.761719 356.175781 247.097656 352.613281 249.164062 349.363281 C 248.289062 346.753906 247.84375 344.082031 247.828125 341.347656 C 261.675781 334.519531 272.140625 338.082031 279.222656 352.035156 C 281.757812 368.421875 274.855469 377.773438 258.515625 380.09375 Z M 258.515625 370.738281 C 257.625 370.296875 256.734375 369.847656 255.84375 369.402344 C 252.382812 368.398438 249.933594 366.167969 248.496094 362.722656 C 248.621094 350.125 254.636719 345.894531 266.53125 350.03125 C 273.402344 360.566406 270.730469 367.46875 258.515625 370.738281 Z M 258.515625 370.738281 "/>
<use xlink:href="#surface35" mask="url(#mask10)"/>
<use xlink:href="#surface38" mask="url(#mask11)"/>
<use xlink:href="#surface41" mask="url(#mask12)"/>
<use xlink:href="#surface44" mask="url(#mask13)"/>
<use xlink:href="#surface47" mask="url(#mask14)"/>
<use xlink:href="#surface50" mask="url(#mask15)"/>
<use xlink:href="#surface53" mask="url(#mask16)"/>
<use xlink:href="#surface56" mask="url(#mask17)"/>
<use xlink:href="#surface59" mask="url(#mask18)"/>
<use xlink:href="#surface62" mask="url(#mask19)"/>
<use xlink:href="#surface65" mask="url(#mask20)"/>
<use xlink:href="#surface68" mask="url(#mask21)"/>
<use xlink:href="#surface71" mask="url(#mask22)"/>
<use xlink:href="#surface74" mask="url(#mask23)"/>
<path style=" stroke:none;fill-rule:evenodd;fill:rgb(31.764707%,69.01961%,78.823531%);fill-opacity:1;" d="M 162.324219 365.394531 C 171.609375 376.570312 171.164062 387.484375 160.988281 398.128906 C 150.601562 404.5 141.027344 403.386719 132.265625 394.789062 C 124.371094 381.542969 126.820312 370.632812 139.613281 362.054688 C 141.339844 361.402344 143.121094 361.179688 144.957031 361.386719 C 144.640625 359.664062 145.085938 358.328125 146.292969 357.378906 C 147.878906 355.796875 149.4375 355.796875 150.96875 357.378906 C 151.378906 356.300781 152.046875 355.410156 152.972656 354.707031 C 154.800781 358.140625 154.351562 361.253906 151.636719 364.058594 C 154.707031 365.097656 157.601562 366.433594 160.320312 368.066406 C 161.695312 367.617188 162.363281 366.726562 162.324219 365.394531 Z M 147.628906 369.402344 C 159.828125 372.648438 162.5 379.550781 155.644531 390.113281 C 145.898438 394.792969 139.664062 391.898438 136.941406 381.429688 C 137.792969 374.796875 141.355469 370.789062 147.628906 369.402344 Z M 147.628906 369.402344 "/>
</g>
</svg>
