<?xml version="1.0" encoding="UTF-8"?>
<!DOCTYPE svg PUBLIC "-//W3C//DTD SVG 1.1//EN" "http://www.w3.org/Graphics/SVG/1.1/DTD/svg11.dtd">
<svg xmlns="http://www.w3.org/2000/svg" version="1.1" width="500px" height="500px" style="shape-rendering:geometricPrecision; text-rendering:geometricPrecision; image-rendering:optimizeQuality; fill-rule:evenodd; clip-rule:evenodd" xmlns:xlink="http://www.w3.org/1999/xlink">
<g><path style="opacity:1" fill="#4bafcc" d="M 365.5,54.5 C 371.86,55.8485 377.527,58.5151 382.5,62.5C 377.986,60.4396 373.319,58.7729 368.5,57.5C 358.455,59.6787 348.455,60.5121 338.5,60C 337.655,61.5581 338.321,62.5581 340.5,63C 337.447,63.1786 334.447,63.6786 331.5,64.5C 338.142,65.3309 344.809,65.8309 351.5,66C 352.5,68.3333 354.167,70 356.5,71C 345.859,70.4188 335.192,70.0855 324.5,70C 327.641,74.2693 326.808,77.436 322,79.5C 321.827,83.5408 321.327,87.5408 320.5,91.5C 319.833,91.1667 319.167,90.8333 318.5,90.5C 317.833,87.8333 317.167,85.1667 316.5,82.5C 315.708,84.4648 315.041,86.4648 314.5,88.5C 316.286,91.958 317.619,95.6247 318.5,99.5C 323.069,101.353 324.069,100.52 321.5,97C 322.566,94.5806 323.9,92.4139 325.5,90.5C 325.5,90.8333 325.5,91.1667 325.5,91.5C 325.292,93.9201 325.626,96.2534 326.5,98.5C 331.586,101.441 335.252,105.441 337.5,110.5C 341.796,109.537 346.129,109.371 350.5,110C 351.337,111.011 351.67,112.178 351.5,113.5C 354.797,111.36 358.464,110.027 362.5,109.5C 362.67,110.822 362.337,111.989 361.5,113C 357.863,114.409 354.53,116.242 351.5,118.5C 351.167,118.5 350.833,118.5 350.5,118.5C 346.05,118.579 341.717,117.912 337.5,116.5C 335.827,114.477 335.16,112.144 335.5,109.5C 330.773,107.542 328.439,109.209 328.5,114.5C 326.516,114.617 324.85,113.95 323.5,112.5C 319.838,107.851 316.672,102.851 314,97.5C 313.105,93.304 312.272,89.1373 311.5,85C 312.447,80.8588 313.114,76.6921 313.5,72.5C 283.341,71.1668 252.841,70.5001 222,70.5C 191.5,70.6667 161,70.8333 130.5,71C 120.974,71.4059 111.64,72.9059 102.5,75.5C 97.1208,76.9325 96.4542,75.7658 100.5,72C 102.5,71.3333 104.5,70.6667 106.5,70C 105.098,68.6575 105.431,67.8242 107.5,67.5C 112.051,67.6172 116.717,67.2839 121.5,66.5C 117.388,65.8784 113.388,64.8784 109.5,63.5C 107.085,65.2161 104.418,65.7161 101.5,65C 103.001,63.7485 104.668,62.7485 106.5,62C 112.731,61.7938 118.898,61.6272 125,61.5C 125.833,61.1667 126.667,60.8333 127.5,60.5C 125.234,59.6858 122.9,59.1858 120.5,59C 121.529,57.3016 123.029,56.4683 125,56.5C 182.501,57.1409 236.501,57.4742 287,57.5C 303.167,57.1667 319.333,56.8333 335.5,56.5C 336.833,55.8333 338.167,55.1667 339.5,54.5C 337.892,53.6816 336.225,53.0149 334.5,52.5C 332.298,53.7797 330.132,53.7797 328,52.5C 259.904,53.3315 191.737,53.8315 123.5,54C 123,54.5 122.5,55 122,55.5C 120.184,54.6705 118.351,53.8372 116.5,53C 116.833,52.6667 117.167,52.3333 117.5,52C 120.833,51.6667 124.167,51.3333 127.5,51C 198.833,50.3333 270.167,50.3333 341.5,51C 348.443,51.4413 355.11,52.9413 361.5,55.5C 362.849,55.1543 364.183,54.821 365.5,54.5 Z"/></g>
<g><path style="opacity:1" fill="#4cafcb" d="M 382.5,62.5 C 411.265,78.8068 428.098,103.473 433,136.5C 433.667,207.833 433.667,279.167 433,350.5C 430.556,370.707 422.723,388.374 409.5,403.5C 405.981,401.356 403.148,402.356 401,406.5C 399.814,404.323 397.981,403.323 395.5,403.5C 395.5,402.167 395.5,400.833 395.5,399.5C 394.127,399.657 392.793,399.49 391.5,399C 390.167,398.333 390.167,397.667 391.5,397C 389.956,396.71 388.623,396.044 387.5,395C 388.336,393.757 388.003,392.59 386.5,391.5C 385.232,392.428 383.899,392.595 382.5,392C 382.957,391.586 383.291,391.086 383.5,390.5C 380.215,390.302 378.548,388.635 378.5,385.5C 380.199,385.66 381.866,385.494 383.5,385C 381.579,383.759 381.246,382.259 382.5,380.5C 383.478,380.977 384.311,381.643 385,382.5C 386.011,381.663 387.178,381.33 388.5,381.5C 391.05,382.358 393.55,383.358 396,384.5C 402.994,375.846 407.827,366.179 410.5,355.5C 411.921,352.492 411.754,349.492 410,346.5C 409.667,346.833 409.333,347.167 409,347.5C 405.863,345.899 402.53,344.899 399,344.5C 394.951,345.794 390.785,346.627 386.5,347C 385.91,348.509 385.244,350.009 384.5,351.5C 383.833,350.833 383.167,350.167 382.5,349.5C 380.963,354.778 379.63,360.112 378.5,365.5C 378.486,367.593 379.152,369.426 380.5,371C 378.776,371.448 378.109,372.282 378.5,373.5C 377.692,371.577 377.192,369.577 377,367.5C 376.221,371.802 374.721,376.135 372.5,380.5C 369.487,377.469 367.821,373.802 367.5,369.5C 368.949,364.971 369.783,360.304 370,355.5C 370.75,354.874 371.584,354.374 372.5,354C 371.692,353.692 371.025,353.192 370.5,352.5C 371.236,350.459 372.069,348.459 373,346.5C 374.011,345.663 375.178,345.33 376.5,345.5C 376.286,343.856 376.62,342.356 377.5,341C 380.411,338.792 383.744,337.458 387.5,337C 388.5,336 389.5,335 390.5,334C 394.405,333.249 398.071,333.749 401.5,335.5C 401.5,334.5 401.5,333.5 401.5,332.5C 402.5,332.5 403.5,332.5 404.5,332.5C 406.591,332.318 408.591,332.652 410.5,333.5C 410.833,301 411.167,268.5 411.5,236C 411.646,201.468 411.146,166.968 410,132.5C 405.254,112.931 394.754,97.2639 378.5,85.5C 377.452,102.586 368.452,113.586 351.5,118.5C 354.53,116.242 357.863,114.409 361.5,113C 362.337,111.989 362.67,110.822 362.5,109.5C 358.464,110.027 354.797,111.36 351.5,113.5C 351.67,112.178 351.337,111.011 350.5,110C 346.129,109.371 341.796,109.537 337.5,110.5C 335.252,105.441 331.586,101.441 326.5,98.5C 325.626,96.2534 325.292,93.9201 325.5,91.5C 331.634,104.16 341.3,107.66 354.5,102C 363.292,94.8362 365.292,86.1695 360.5,76C 351.794,72.6922 342.794,70.8589 333.5,70.5C 329.603,72.27 327.103,75.27 326,79.5C 325.501,83.1516 325.335,86.8183 325.5,90.5C 323.9,92.4139 322.566,94.5806 321.5,97C 324.069,100.52 323.069,101.353 318.5,99.5C 317.619,95.6247 316.286,91.958 314.5,88.5C 315.041,86.4648 315.708,84.4648 316.5,82.5C 317.167,85.1667 317.833,87.8333 318.5,90.5C 319.167,90.8333 319.833,91.1667 320.5,91.5C 321.327,87.5408 321.827,83.5408 322,79.5C 326.808,77.436 327.641,74.2693 324.5,70C 335.192,70.0855 345.859,70.4188 356.5,71C 354.167,70 352.5,68.3333 351.5,66C 344.809,65.8309 338.142,65.3309 331.5,64.5C 334.447,63.6786 337.447,63.1786 340.5,63C 338.321,62.5581 337.655,61.5581 338.5,60C 348.455,60.5121 358.455,59.6787 368.5,57.5C 373.319,58.7729 377.986,60.4396 382.5,62.5 Z M 325.5,91.5 C 325.5,91.1667 325.5,90.8333 325.5,90.5C 325.335,86.8183 325.501,83.1516 326,79.5C 327.103,75.27 329.603,72.27 333.5,70.5C 342.794,70.8589 351.794,72.6922 360.5,76C 365.292,86.1695 363.292,94.8362 354.5,102C 341.3,107.66 331.634,104.16 325.5,91.5 Z M 410.5,355.5 C 407.827,366.179 402.994,375.846 396,384.5C 393.55,383.358 391.05,382.358 388.5,381.5C 377.506,370.29 377.84,359.457 389.5,349C 396.167,345.667 402.833,345.667 409.5,349C 410.423,351.041 410.756,353.208 410.5,355.5 Z"/></g>
<g><path style="opacity:1" fill="#4dafca" d="M 365.5,54.5 C 364.183,54.821 362.849,55.1543 361.5,55.5C 355.11,52.9413 348.443,51.4413 341.5,51C 270.167,50.3333 198.833,50.3333 127.5,51C 124.167,51.3333 120.833,51.6667 117.5,52C 117.167,52.3333 116.833,52.6667 116.5,53C 118.351,53.8372 120.184,54.6705 122,55.5C 122.5,55 123,54.5 123.5,54C 191.737,53.8315 259.904,53.3315 328,52.5C 330.132,53.7797 332.298,53.7797 334.5,52.5C 336.225,53.0149 337.892,53.6816 339.5,54.5C 338.167,55.1667 336.833,55.8333 335.5,56.5C 319.333,56.8333 303.167,57.1667 287,57.5C 236.501,57.4742 182.501,57.1409 125,56.5C 123.029,56.4683 121.529,57.3016 120.5,59C 122.9,59.1858 125.234,59.6858 127.5,60.5C 126.667,60.8333 125.833,61.1667 125,61.5C 118.898,61.6272 112.731,61.7938 106.5,62C 104.668,62.7485 103.001,63.7485 101.5,65C 104.418,65.7161 107.085,65.2161 109.5,63.5C 113.388,64.8784 117.388,65.8784 121.5,66.5C 116.717,67.2839 112.051,67.6172 107.5,67.5C 105.431,67.8242 105.098,68.6575 106.5,70C 104.5,70.6667 102.5,71.3333 100.5,72C 96.4542,75.7658 97.1208,76.9325 102.5,75.5C 74.5006,88.3417 58.0006,110.008 53,140.5C 52.3333,202.5 52.3333,264.5 53,326.5C 58.3041,324.692 63.8041,324.025 69.5,324.5C 69.2965,326.39 69.9632,327.89 71.5,329C 66.1667,329.333 60.8333,329.667 55.5,330C 55.8333,330.333 56.1667,330.667 56.5,331C 53.4411,331.645 50.4411,332.478 47.5,333.5C 46.7542,334.736 46.4208,336.07 46.5,337.5C 50.1307,335.644 53.964,333.977 58,332.5C 61.4106,333.293 64.9106,333.793 68.5,334C 68.8333,334.333 69.1667,334.667 69.5,335C 64.3453,336.851 59.0119,338.018 53.5,338.5C 52.8545,340.432 51.5212,341.599 49.5,342C 50.5266,342.513 51.5266,343.013 52.5,343.5C 52.5,344.833 52.5,346.167 52.5,347.5C 53.0065,351.007 52.3398,354.174 50.5,357C 53.8243,361.726 54.1576,366.559 51.5,371.5C 52.4978,374.028 53.3311,374.028 54,371.5C 53.7821,373.587 53.9488,375.587 54.5,377.5C 55.4776,377.023 56.3109,376.357 57,375.5C 57.5885,377.863 59.0885,378.863 61.5,378.5C 61.6329,381.896 62.6329,382.229 64.5,379.5C 65.4776,379.977 66.3109,380.643 67,381.5C 67.2735,383.329 68.1068,384.829 69.5,386C 66.5315,388.178 66.8649,389.344 70.5,389.5C 70.5,390.833 70.5,392.167 70.5,393.5C 68.8762,393.64 67.7096,392.973 67,391.5C 66.6322,392.91 65.7989,393.91 64.5,394.5C 63.1191,392.309 61.1191,390.976 58.5,390.5C 60.781,388.606 61.9476,386.272 62,383.5C 61.6667,383.167 61.3333,382.833 61,382.5C 60.712,386.174 59.212,387.007 56.5,385C 58.4206,383.759 58.754,382.259 57.5,380.5C 55.8685,381.297 54.3685,382.297 53,383.5C 50.2437,381.226 48.9104,378.226 49,374.5C 48,376.167 47,377.833 46,379.5C 44.8049,376.813 44.6382,374.146 45.5,371.5C 44.229,371.874 43.0623,371.208 42,369.5C 41.4992,364.492 40.9992,359.492 40.5,354.5C 39.5,354.5 38.5,354.5 37.5,354.5C 37.7523,359.385 37.419,364.219 36.5,369C 37.0104,370.826 37.8438,370.993 39,369.5C 40.5953,374.696 42.7619,379.696 45.5,384.5C 45.1667,385.167 44.8333,385.833 44.5,386.5C 45.4565,388.075 46.1231,389.742 46.5,391.5C 37.3693,378.355 32.2027,363.688 31,347.5C 30.3333,278.167 30.3333,208.833 31,139.5C 37.2701,96.1156 61.1034,67.2823 102.5,53C 107.448,51.7437 112.448,50.7437 117.5,50C 189.737,49.8316 261.904,49.3316 334,48.5C 344.836,49.1633 355.336,51.1633 365.5,54.5 Z"/></g>
<g><path style="opacity:1" fill="#4dafc9" d="M 313.5,72.5 C 313.114,76.6921 312.447,80.8588 311.5,85C 312.272,89.1373 313.105,93.304 314,97.5C 316.672,102.851 319.838,107.851 323.5,112.5C 324.85,113.95 326.516,114.617 328.5,114.5C 328.439,109.209 330.773,107.542 335.5,109.5C 335.16,112.144 335.827,114.477 337.5,116.5C 341.717,117.912 346.05,118.579 350.5,118.5C 345.984,119.747 341.317,119.747 336.5,118.5C 334.971,118.529 333.804,119.196 333,120.5C 315.5,146.167 298,171.833 280.5,197.5C 305.932,222.414 311.932,251.414 298.5,284.5C 324.833,302 351.167,319.5 377.5,337C 380.763,337.136 383.763,336.136 386.5,334C 392.521,331.695 398.521,331.195 404.5,332.5C 403.5,332.5 402.5,332.5 401.5,332.5C 401.5,333.5 401.5,334.5 401.5,335.5C 398.071,333.749 394.405,333.249 390.5,334C 389.5,335 388.5,336 387.5,337C 383.744,337.458 380.411,338.792 377.5,341C 376.62,342.356 376.286,343.856 376.5,345.5C 375.178,345.33 374.011,345.663 373,346.5C 372.069,348.459 371.236,350.459 370.5,352.5C 371.025,353.192 371.692,353.692 372.5,354C 371.584,354.374 370.75,354.874 370,355.5C 369.783,360.304 368.949,364.971 367.5,369.5C 367.821,373.802 369.487,377.469 372.5,380.5C 374.721,376.135 376.221,371.802 377,367.5C 377.192,369.577 377.692,371.577 378.5,373.5C 378.109,372.282 378.776,371.448 380.5,371C 379.152,369.426 378.486,367.593 378.5,365.5C 379.63,360.112 380.963,354.778 382.5,349.5C 383.167,350.167 383.833,350.833 384.5,351.5C 385.244,350.009 385.91,348.509 386.5,347C 390.785,346.627 394.951,345.794 399,344.5C 402.53,344.899 405.863,345.899 409,347.5C 409.333,347.167 409.667,346.833 410,346.5C 411.754,349.492 411.921,352.492 410.5,355.5C 410.756,353.208 410.423,351.041 409.5,349C 402.833,345.667 396.167,345.667 389.5,349C 377.84,359.457 377.506,370.29 388.5,381.5C 387.178,381.33 386.011,381.663 385,382.5C 384.311,381.643 383.478,380.977 382.5,380.5C 381.246,382.259 381.579,383.759 383.5,385C 381.866,385.494 380.199,385.66 378.5,385.5C 378.548,388.635 380.215,390.302 383.5,390.5C 383.291,391.086 382.957,391.586 382.5,392C 383.899,392.595 385.232,392.428 386.5,391.5C 388.003,392.59 388.336,393.757 387.5,395C 388.623,396.044 389.956,396.71 391.5,397C 390.167,397.667 390.167,398.333 391.5,399C 392.793,399.49 394.127,399.657 395.5,399.5C 395.5,400.833 395.5,402.167 395.5,403.5C 397.981,403.323 399.814,404.323 401,406.5C 403.148,402.356 405.981,401.356 409.5,403.5C 393.567,421.802 373.567,432.802 349.5,436.5C 275.504,435.878 201.504,435.212 127.5,434.5C 196.498,433.667 265.498,433.167 334.5,433C 336.167,432.667 337.833,432.333 339.5,432C 338.062,431.781 336.729,431.281 335.5,430.5C 338.627,426.605 342.627,424.272 347.5,423.5C 347.5,422.167 347.5,420.833 347.5,419.5C 345.857,419.52 344.524,418.853 343.5,417.5C 342.5,418.833 341.5,420.167 340.5,421.5C 340.331,420.603 339.998,419.603 339.5,418.5C 338.41,419.727 337.076,420.56 335.5,421C 336.5,421.333 337.5,421.667 338.5,422C 336.899,422.273 335.399,422.773 334,423.5C 308.333,423.167 282.667,422.833 257,422.5C 256.333,423.5 256.333,424.5 257,425.5C 282.667,425.167 308.333,424.833 334,424.5C 334.692,425.025 335.192,425.692 335.5,426.5C 305.755,427.679 276.089,427.679 246.5,426.5C 244.085,426.281 243.085,424.948 243.5,422.5C 241.25,422.181 239.25,422.681 237.5,424C 240.167,426 242.833,428 245.5,430C 242.816,431.923 240.149,431.756 237.5,429.5C 233.032,431.632 228.365,431.966 223.5,430.5C 226.212,429.772 228.879,428.939 231.5,428C 229.321,426.858 226.988,426.025 224.5,425.5C 223.713,426.242 223.047,427.075 222.5,428C 217.511,428.499 212.511,428.666 207.5,428.5C 207.5,429.5 207.5,430.5 207.5,431.5C 204.15,431.665 200.817,431.498 197.5,431C 195.483,430.326 193.817,429.159 192.5,427.5C 190.519,428.105 190.185,429.105 191.5,430.5C 188.016,431.905 184.682,431.739 181.5,430C 182.938,429.781 184.271,429.281 185.5,428.5C 185.333,428.167 185.167,427.833 185,427.5C 183.6,428.116 182.1,428.449 180.5,428.5C 162.837,427.888 145.171,427.221 127.5,426.5C 147.5,425.833 167.5,425.167 187.5,424.5C 183.654,422.829 179.654,421.663 175.5,421C 162.167,420.333 148.833,420.333 135.5,421C 131.954,421.394 128.621,422.061 125.5,423C 126.833,422.333 126.833,421.667 125.5,421C 126.938,420.781 128.271,420.281 129.5,419.5C 148.825,418.667 168.158,418.167 187.5,418C 188.167,417.333 188.833,416.667 189.5,416C 188.166,413.34 187.332,410.506 187,407.5C 186.501,402.177 186.334,396.844 186.5,391.5C 190.865,378.473 199.865,370.807 213.5,368.5C 214.764,353.877 215.431,339.211 215.5,324.5C 198.179,320.425 184.012,311.425 173,297.5C 148.252,313.791 123.419,329.958 98.5,346C 97.1772,346.816 96.5106,347.983 96.5,349.5C 94.9826,349.489 93.8159,348.823 93,347.5C 91.4216,343.587 89.9216,339.587 88.5,335.5C 85.5,335.167 84.1667,336.5 84.5,339.5C 83.5,339.5 82.5,339.5 81.5,339.5C 81.6046,334.846 80.2713,334.346 77.5,338C 80.0906,341.411 79.424,342.078 75.5,340C 76.5733,338.75 76.5733,337.416 75.5,336C 78.199,333.984 81.199,332.484 84.5,331.5C 86.371,331.859 87.871,332.859 89,334.5C 114.585,317.958 140.085,301.291 165.5,284.5C 154.346,258.074 156.679,232.907 172.5,209C 160.179,196.012 147.846,183.012 135.5,170C 119.069,175.647 104.902,172.147 93,159.5C 83.1286,145.487 83.1286,131.487 93,117.5C 108.856,101.805 125.689,100.638 143.5,114C 155.547,128.449 156.547,143.616 146.5,159.5C 158.861,172.193 171.194,184.86 183.5,197.5C 209.391,177.138 237.224,174.138 267,188.5C 269.434,186.993 271.434,184.993 273,182.5C 288.795,158.407 304.962,134.574 321.5,111C 310.327,99.8221 307.66,86.9888 313.5,72.5 Z M 222.5,194.5 C 258.323,192.648 280.823,208.981 290,243.5C 291.999,284.496 272.666,307.496 232,312.5C 200.344,310.181 181.011,293.514 174,262.5C 171.005,233.315 182.505,212.148 208.5,199C 213.286,197.478 217.952,195.978 222.5,194.5 Z M 115.5,119.5 C 132.64,119.14 140.14,127.474 138,144.5C 131.395,157.479 121.562,160.646 108.5,154C 97.8333,143.667 97.8333,133.333 108.5,123C 110.925,121.787 113.259,120.621 115.5,119.5 Z M 227.5,234.5 C 241.39,233.39 249.39,239.723 251.5,253.5C 248.838,266.668 240.838,272.835 227.5,272C 215.764,267.362 211.264,258.862 214,246.5C 216.866,240.457 221.366,236.457 227.5,234.5 Z M 290.5,297.5 C 317.178,314.504 343.511,332.004 369.5,350C 362.514,366.736 365.847,381.07 379.5,393C 381.5,394 383.5,395 385.5,396C 375.231,405.47 363.231,411.803 349.5,415C 316.195,416.442 282.862,416.942 249.5,416.5C 256.294,394.765 249.461,379.098 229,369.5C 229.245,355.503 229.912,341.503 231,327.5C 255.463,326.352 275.296,316.352 290.5,297.5 Z M 214.5,382.5 C 229.978,382.477 237.478,390.143 237,405.5C 235.974,409.722 233.807,413.222 230.5,416C 222.167,416.667 213.833,416.667 205.5,416C 196.727,404.727 197.727,394.393 208.5,385C 210.611,384.155 212.611,383.322 214.5,382.5 Z"/></g>
<g><path style="opacity:1" fill="#4cafc9" d="M 225.5,219.5 C 245.466,217.984 258.633,226.65 265,245.5C 267.663,265.691 259.496,279.191 240.5,286C 211.158,288.324 197.324,274.824 199,245.5C 203.113,231.886 211.946,223.219 225.5,219.5 Z M 227.5,234.5 C 221.366,236.457 216.866,240.457 214,246.5C 211.264,258.862 215.764,267.362 227.5,272C 240.838,272.835 248.838,266.668 251.5,253.5C 249.39,239.723 241.39,233.39 227.5,234.5 Z"/></g>
<g><path style="opacity:1" fill="#4eafc8" d="M 69.5,324.5 C 75.2324,325.51 80.2324,327.843 84.5,331.5C 81.199,332.484 78.199,333.984 75.5,336C 76.5733,337.416 76.5733,338.75 75.5,340C 79.424,342.078 80.0906,341.411 77.5,338C 80.2713,334.346 81.6046,334.846 81.5,339.5C 82.5,339.5 83.5,339.5 84.5,339.5C 84.1667,336.5 85.5,335.167 88.5,335.5C 89.9216,339.587 91.4216,343.587 93,347.5C 93.8159,348.823 94.9826,349.489 96.5,349.5C 100.449,369.463 92.7822,383.297 73.5,391C 86.6659,405.417 102.999,413.75 122.5,416C 144.174,416.833 165.841,416.666 187.5,415.5C 184.048,407.482 183.715,399.482 186.5,391.5C 186.334,396.844 186.501,402.177 187,407.5C 187.332,410.506 188.166,413.34 189.5,416C 188.833,416.667 188.167,417.333 187.5,418C 168.158,418.167 148.825,418.667 129.5,419.5C 128.271,420.281 126.938,420.781 125.5,421C 126.833,421.667 126.833,422.333 125.5,423C 128.621,422.061 131.954,421.394 135.5,421C 148.833,420.333 162.167,420.333 175.5,421C 179.654,421.663 183.654,422.829 187.5,424.5C 167.5,425.167 147.5,425.833 127.5,426.5C 145.171,427.221 162.837,427.888 180.5,428.5C 182.1,428.449 183.6,428.116 185,427.5C 185.167,427.833 185.333,428.167 185.5,428.5C 184.271,429.281 182.938,429.781 181.5,430C 184.682,431.739 188.016,431.905 191.5,430.5C 190.185,429.105 190.519,428.105 192.5,427.5C 193.817,429.159 195.483,430.326 197.5,431C 200.817,431.498 204.15,431.665 207.5,431.5C 207.5,430.5 207.5,429.5 207.5,428.5C 212.511,428.666 217.511,428.499 222.5,428C 223.047,427.075 223.713,426.242 224.5,425.5C 226.988,426.025 229.321,426.858 231.5,428C 228.879,428.939 226.212,429.772 223.5,430.5C 228.365,431.966 233.032,431.632 237.5,429.5C 240.149,431.756 242.816,431.923 245.5,430C 242.833,428 240.167,426 237.5,424C 239.25,422.681 241.25,422.181 243.5,422.5C 243.085,424.948 244.085,426.281 246.5,426.5C 276.089,427.679 305.755,427.679 335.5,426.5C 335.192,425.692 334.692,425.025 334,424.5C 308.333,424.833 282.667,425.167 257,425.5C 256.333,424.5 256.333,423.5 257,422.5C 282.667,422.833 308.333,423.167 334,423.5C 335.399,422.773 336.899,422.273 338.5,422C 337.5,421.667 336.5,421.333 335.5,421C 337.076,420.56 338.41,419.727 339.5,418.5C 339.998,419.603 340.331,420.603 340.5,421.5C 341.5,420.167 342.5,418.833 343.5,417.5C 344.524,418.853 345.857,419.52 347.5,419.5C 347.5,420.833 347.5,422.167 347.5,423.5C 342.627,424.272 338.627,426.605 335.5,430.5C 336.729,431.281 338.062,431.781 339.5,432C 337.833,432.333 336.167,432.667 334.5,433C 265.498,433.167 196.498,433.667 127.5,434.5C 201.504,435.212 275.504,435.878 349.5,436.5C 347.369,437.314 345.036,437.814 342.5,438C 305.667,438.167 268.833,438.333 232,438.5C 192.806,438.646 153.639,438.146 114.5,437C 84.9341,431.9 62.2675,416.734 46.5,391.5C 46.1231,389.742 45.4565,388.075 44.5,386.5C 44.8333,385.833 45.1667,385.167 45.5,384.5C 42.7619,379.696 40.5953,374.696 39,369.5C 37.8438,370.993 37.0104,370.826 36.5,369C 37.419,364.219 37.7523,359.385 37.5,354.5C 38.5,354.5 39.5,354.5 40.5,354.5C 40.9992,359.492 41.4992,364.492 42,369.5C 43.0623,371.208 44.229,371.874 45.5,371.5C 44.6382,374.146 44.8049,376.813 46,379.5C 47,377.833 48,376.167 49,374.5C 48.9104,378.226 50.2437,381.226 53,383.5C 54.3685,382.297 55.8685,381.297 57.5,380.5C 58.754,382.259 58.4206,383.759 56.5,385C 59.212,387.007 60.712,386.174 61,382.5C 61.3333,382.833 61.6667,383.167 62,383.5C 61.9476,386.272 60.781,388.606 58.5,390.5C 61.1191,390.976 63.1191,392.309 64.5,394.5C 65.7989,393.91 66.6322,392.91 67,391.5C 67.7096,392.973 68.8762,393.64 70.5,393.5C 70.5,392.167 70.5,390.833 70.5,389.5C 66.8649,389.344 66.5315,388.178 69.5,386C 68.1068,384.829 67.2735,383.329 67,381.5C 66.3109,380.643 65.4776,379.977 64.5,379.5C 62.6329,382.229 61.6329,381.896 61.5,378.5C 59.0885,378.863 57.5885,377.863 57,375.5C 56.3109,376.357 55.4776,377.023 54.5,377.5C 53.9488,375.587 53.7821,373.587 54,371.5C 53.3311,374.028 52.4978,374.028 51.5,371.5C 54.1576,366.559 53.8243,361.726 50.5,357C 52.3398,354.174 53.0065,351.007 52.5,347.5C 54.1084,357.487 57.4417,366.987 62.5,376C 74.8489,376.163 81.8489,369.996 83.5,357.5C 81.7706,344.6 74.4373,338.433 61.5,339C 57.8895,339.472 54.8895,340.972 52.5,343.5C 51.5266,343.013 50.5266,342.513 49.5,342C 51.5212,341.599 52.8545,340.432 53.5,338.5C 59.0119,338.018 64.3453,336.851 69.5,335C 69.1667,334.667 68.8333,334.333 68.5,334C 64.9106,333.793 61.4106,333.293 58,332.5C 53.964,333.977 50.1307,335.644 46.5,337.5C 46.4208,336.07 46.7542,334.736 47.5,333.5C 50.4411,332.478 53.4411,331.645 56.5,331C 56.1667,330.667 55.8333,330.333 55.5,330C 60.8333,329.667 66.1667,329.333 71.5,329C 69.9632,327.89 69.2965,326.39 69.5,324.5 Z"/></g>
</svg>
