<?xml version="1.0" encoding="UTF-8"?>
<!DOCTYPE svg PUBLIC "-//W3C//DTD SVG 1.1//EN" "http://www.w3.org/Graphics/SVG/1.1/DTD/svg11.dtd">
<svg xmlns="http://www.w3.org/2000/svg" version="1.1" width="442px" height="421px" style="shape-rendering:geometricPrecision; text-rendering:geometricPrecision; image-rendering:optimizeQuality; fill-rule:evenodd; clip-rule:evenodd" xmlns:xlink="http://www.w3.org/1999/xlink">
<g><path style="opacity:1" fill="#fefefe" d="M -0.5,-0.5 C 146.833,-0.5 294.167,-0.5 441.5,-0.5C 441.5,139.833 441.5,280.167 441.5,420.5C 294.167,420.5 146.833,420.5 -0.5,420.5C -0.5,280.167 -0.5,139.833 -0.5,-0.5 Z"/></g>
<g><path style="opacity:1" fill="#4eb1cb" d="M 102.5,12.5 C 177.834,12.3333 253.167,12.5 328.5,13C 378.203,21.7033 407.703,50.8699 417,100.5C 417.667,169.833 417.667,239.167 417,308.5C 414.312,339.049 400.812,363.549 376.5,382C 362.723,391.885 347.39,397.885 330.5,400C 253.5,400.667 176.5,400.667 99.5,400C 53.6867,390.187 25.8533,362.353 16,316.5C 15.0153,241.464 15.3487,166.464 17,91.5C 24.762,60.1277 42.9287,36.961 71.5,22C 81.6148,17.7274 91.9482,14.5608 102.5,12.5 Z"/></g>
<g><path style="opacity:1" fill="#fefefe" d="M 103.5,33.5 C 168.17,33.1667 232.837,33.5 297.5,34.5C 291.911,49.6439 294.911,62.8106 306.5,74C 288.5,100 270.5,126 252.5,152C 244.202,148.57 235.536,145.904 226.5,144C 204.117,141.009 184.45,146.842 167.5,161.5C 155.179,149.012 143.012,136.345 131,123.5C 130.333,122.5 130.333,121.5 131,120.5C 141.89,100.893 138.057,84.7266 119.5,72C 96.4973,63.7514 80.3307,70.9181 71,93.5C 68.3762,113.088 76.2096,126.588 94.5,134C 100.5,134.667 106.5,134.667 112.5,134C 114.747,132.691 117.08,132.025 119.5,132C 132.35,145.349 145.017,158.849 157.5,172.5C 145.658,188.2 140.825,205.866 143,225.5C 144.868,233.312 146.868,240.978 149,248.5C 123.925,265.243 98.5919,281.576 73,297.5C 62.3782,288.443 50.3782,285.776 37,289.5C 36.3333,226.167 36.3333,162.833 37,99.5C 45.1162,63.2167 67.2829,41.2167 103.5,33.5 Z"/></g>
<g><path style="opacity:1" fill="#fcfefe" d="M 315.5,33.5 C 326.025,33.1907 336.025,35.1907 345.5,39.5C 350.41,56.0223 344.41,65.689 327.5,68.5C 313.568,65.9863 307.402,57.6529 309,43.5C 310.431,39.6262 312.597,36.2928 315.5,33.5 Z"/></g>
<g><path style="opacity:1" fill="#fefefe" d="M 395.5,102.5 C 395.832,167.335 395.499,232.002 394.5,296.5C 383.37,293.833 373.037,295.499 363.5,301.5C 336.41,284.206 309.576,266.539 283,248.5C 296.057,214.738 289.557,185.405 263.5,160.5C 281.805,133.695 300.305,107.029 319,80.5C 340.099,84.2784 354.099,75.9451 361,55.5C 361.333,52.8333 361.667,50.1667 362,47.5C 381.194,60.878 392.361,79.2113 395.5,102.5 Z"/></g>
<g><path style="opacity:1" fill="#fdfefe" d="M 97.5,82.5 C 109.884,80.2722 118.384,84.9389 123,96.5C 124.489,106.354 120.989,113.854 112.5,119C 92.8791,123.378 83.7125,115.545 85,95.5C 87.3531,89.3154 91.5198,84.982 97.5,82.5 Z"/></g>
<g><path style="opacity:1" fill="#d6edf3" d="M 395.5,102.5 C 396.832,167.335 396.832,232.335 395.5,297.5C 394.893,297.376 394.56,297.043 394.5,296.5C 395.499,232.002 395.832,167.335 395.5,102.5 Z"/></g>
<g><path style="opacity:1" fill="#fdfefe" d="M 208.5,156.5 C 237.26,155.624 258.093,167.957 271,193.5C 281.028,225.755 271.862,250.922 243.5,269C 213.852,281.794 188.685,275.961 168,251.5C 149.383,220.821 153.217,193.321 179.5,169C 188.3,162.594 197.967,158.427 208.5,156.5 Z"/></g>
<g><path style="opacity:1" fill="#4fb1cc" d="M 210.5,182.5 C 236.806,182.971 249.639,196.305 249,222.5C 242.588,242.797 228.754,251.63 207.5,249C 188.611,242.089 180.444,228.589 183,208.5C 187.448,194.717 196.614,186.05 210.5,182.5 Z"/></g>
<g><path style="opacity:1" fill="#fdfefe" d="M 212.5,196.5 C 228.493,196.657 235.993,204.657 235,220.5C 229.338,234.39 219.505,238.557 205.5,233C 194.34,222.923 193.673,212.256 203.5,201C 206.324,198.921 209.324,197.421 212.5,196.5 Z"/></g>
<g><path style="opacity:1" fill="#fefefe" d="M 171.5,378.5 C 152.007,379.497 132.34,379.83 112.5,379.5C 90.0118,378.921 71.3451,370.254 56.5,353.5C 76.7678,345.7 84.9345,331.033 81,309.5C 106.18,292.911 131.513,276.578 157,260.5C 168.522,274.184 183.022,283.184 200.5,287.5C 199.728,302.161 199.062,316.828 198.5,331.5C 173.729,338.036 164.729,353.702 171.5,378.5 Z"/></g>
<g><path style="opacity:1" fill="#fefefe" d="M 273.5,260.5 C 300.323,276.838 326.823,293.838 353,311.5C 351.173,316.732 350.34,322.232 350.5,328C 350.595,342.512 357.261,352.845 370.5,359C 358.087,370.539 343.42,377.205 326.5,379C 295.167,379.667 263.833,379.667 232.5,379C 239.794,358.093 233.46,342.926 213.5,333.5C 213.167,330.667 212.833,327.833 212.5,325C 213.322,313.172 213.989,301.338 214.5,289.5C 238.923,289.121 258.59,279.454 273.5,260.5 Z"/></g>
<g><path style="opacity:1" fill="#fdfefe" d="M 42.5,301.5 C 60.6809,300.18 68.8476,308.513 67,326.5C 63.3055,336.501 56.3055,340.834 46,339.5C 39.5292,328.613 36.6958,316.946 37.5,304.5C 39.3964,303.725 41.063,302.725 42.5,301.5 Z"/></g>
<g><path style="opacity:1" fill="#fcfefe" d="M 379.5,308.5 C 385.543,308.182 390.876,309.849 395.5,313.5C 393.435,325.535 388.935,336.535 382,346.5C 370.342,345.997 364.509,339.664 364.5,327.5C 365.394,317.938 370.394,311.605 379.5,308.5 Z"/></g>
<g><path style="opacity:1" fill="#fdfefe" d="M 197.5,345.5 C 214.669,344.501 222.502,352.501 221,369.5C 220.064,373.207 218.231,376.374 215.5,379C 206.833,379.667 198.167,379.667 189.5,379C 179.679,368.057 180.346,357.724 191.5,348C 193.611,347.155 195.611,346.322 197.5,345.5 Z"/></g>
<g><path style="opacity:1" fill="#a4d6e4" d="M 171.5,378.5 C 172.043,378.56 172.376,378.893 172.5,379.5C 152.337,380.828 132.337,380.828 112.5,379.5C 132.34,379.83 152.007,379.497 171.5,378.5 Z"/></g>
</svg>
